M48
METRIC,TZ
T1C0.400
T2C0.600
T3C2.100
T4C0.400
%
G90
G05
T1
X-8.33Y0.88
X-8.33Y-19.12
X-7.87Y-1.07
X-7.87Y-21.07
X-7.22Y-0.22
X-7.22Y-20.22
X-6.92Y4.9
X-6.92Y-15.1
X-6.08Y0.04
X-6.08Y-19.96
X-6.01Y-0.91
X-6.01Y-20.91
X-5.75Y2.4
X-5.75Y-17.6
X-5.31Y4.01
X-5.31Y-15.99
X-3.6Y5.2
X-3.6Y-14.8
X-2.55Y3.2
X-2.55Y-16.8
X-2.5Y-1.64
X-2.5Y-21.64
X-2.257Y-0.913
X-2.257Y-20.913
X-1.74Y3.67
X-1.74Y-16.33
X-1.67Y5.37
X-1.67Y-14.63
X-1.52Y-1.52
X-1.52Y-21.52
X-1.358Y-3.856
X-1.358Y-23.856
X-0.85Y7.05
X-0.85Y-12.95
X-0.742Y-1.543
X-0.742Y-21.543
X-0.51Y3.51
X-0.51Y-16.49
X0.019Y-1.467
X0.019Y-21.467
X1.1Y5.8
X1.1Y-14.2
X1.28Y3.56
X1.28Y-16.44
X1.374Y-4.039
X1.374Y-24.039
X2.41Y-1.59
X2.41Y-21.59
X2.52Y2.79
X2.52Y2.01
X2.52Y-17.21
X2.52Y-17.99
X2.54Y3.57
X2.54Y0.73
X2.54Y-16.43
X2.54Y-19.27
X2.64Y-0.51
X2.64Y-20.51
X3.54Y-3.86
X3.54Y-23.86
X4.24Y3.85
X4.24Y-16.15
X4.55Y-0.15
X4.55Y-20.15
X5.8Y-4.9
X5.8Y-24.9
X6.Y2.7
X6.Y1.7
X6.Y-17.3
X6.Y-18.3
X6.527Y0.613
X6.527Y-19.387
X6.543Y-0.364
X6.543Y-20.364
X7.46Y3.06
X7.46Y-16.94
X7.965Y0.223
X7.965Y-19.777
X7.978Y-2.724
X7.978Y-22.724
X11.67Y0.88
X11.67Y-19.12
X12.13Y-1.07
X12.13Y-21.07
X12.78Y-0.22
X12.78Y-20.22
X13.08Y4.9
X13.08Y-15.1
X13.92Y0.04
X13.92Y-19.96
X13.99Y-0.91
X13.99Y-20.91
X14.25Y2.4
X14.25Y-17.6
X14.69Y4.01
X14.69Y-15.99
X16.4Y5.2
X16.4Y-14.8
X17.45Y3.2
X17.45Y-16.8
X17.5Y-1.64
X17.5Y-21.64
X17.743Y-0.913
X17.743Y-20.913
X18.26Y3.67
X18.26Y-16.33
X18.33Y5.37
X18.33Y-14.63
X18.48Y-1.52
X18.48Y-21.52
X18.642Y-3.856
X18.642Y-23.856
X19.15Y7.05
X19.15Y-12.95
X19.258Y-1.543
X19.258Y-21.543
X19.49Y3.51
X19.49Y-16.49
X20.019Y-1.467
X20.019Y-21.467
X21.1Y5.8
X21.1Y-14.2
X21.28Y3.56
X21.28Y-16.44
X21.374Y-4.039
X21.374Y-24.039
X22.41Y-1.59
X22.41Y-21.59
X22.52Y2.79
X22.52Y2.01
X22.52Y-17.21
X22.52Y-17.99
X22.54Y3.57
X22.54Y0.73
X22.54Y-16.43
X22.54Y-19.27
X22.64Y-0.51
X22.64Y-20.51
X23.54Y-3.86
X23.54Y-23.86
X24.24Y3.85
X24.24Y-16.15
X24.55Y-0.15
X24.55Y-20.15
X25.8Y-4.9
X25.8Y-24.9
X26.Y2.7
X26.Y1.7
X26.Y-17.3
X26.Y-18.3
X26.527Y0.613
X26.527Y-19.387
X26.543Y-0.364
X26.543Y-20.364
X27.46Y3.06
X27.46Y-16.94
X27.965Y0.223
X27.965Y-19.777
X27.978Y-2.724
X27.978Y-22.724
T2
X-5.3Y-4.9
X-5.3Y-24.9
X-4.2Y-3.9
X-4.2Y-23.9
X0.321Y8.265
X0.321Y-11.735
X2.5Y7.5
X2.5Y-12.5
X4.8Y5.2
X4.8Y-14.8
X14.7Y-4.9
X14.7Y-24.9
X15.8Y-3.9
X15.8Y-23.9
X20.321Y8.265
X20.321Y-11.735
X22.5Y7.5
X22.5Y-12.5
X24.8Y5.2
X24.8Y-14.8
T3
X-6.Y-2.8
X-6.Y-22.8
X6.Y-2.8
X6.Y-22.8
X14.Y-2.8
X14.Y-22.8
X26.Y-2.8
X26.Y-22.8
T4
X-9.2Y0.7
X-9.2Y0.
X-9.2Y-0.7
X-9.2Y-19.3
X-9.2Y-20.
X-9.2Y-20.7
X-0.7Y9.2
X-0.7Y-5.1
X-0.7Y-10.8
X-0.7Y-25.1
X0.Y9.2
X0.Y-5.1
X0.Y-10.8
X0.Y-25.1
X0.7Y9.2
X0.7Y-5.1
X0.7Y-10.8
X0.7Y-25.1
X9.2Y0.7
X9.2Y0.
X9.2Y-0.7
X9.2Y-19.3
X9.2Y-20.
X9.2Y-20.7
X10.8Y0.7
X10.8Y0.
X10.8Y-0.7
X10.8Y-19.3
X10.8Y-20.
X10.8Y-20.7
X19.3Y9.2
X19.3Y-5.1
X19.3Y-10.8
X19.3Y-25.1
X20.Y9.2
X20.Y-5.1
X20.Y-10.8
X20.Y-25.1
X20.7Y9.2
X20.7Y-5.1
X20.7Y-10.8
X20.7Y-25.1
X29.2Y0.7
X29.2Y0.
X29.2Y-0.7
X29.2Y-19.3
X29.2Y-20.
X29.2Y-20.7
T0
M30
