G04 #@! TF.FileFunction,Legend,Bot*
%FSLAX46Y46*%
G04 Gerber Fmt 4.6, Leading zero omitted, Abs format (unit mm)*
G04 Created by KiCad (PCBNEW 4.0.7+dfsg1-1) date Fri Jun  1 01:11:19 2018*
%MOMM*%
%LPD*%
G01*
G04 APERTURE LIST*
%ADD10C,0.100000*%
G04 APERTURE END LIST*
D10*
X4071428Y-15089286D02*
X3892857Y-15589286D01*
X3714285Y-15089286D01*
X3428571Y-15589286D02*
X3428571Y-14839286D01*
X3428571Y-15125000D02*
X3357142Y-15089286D01*
X3214285Y-15089286D01*
X3142856Y-15125000D01*
X3107142Y-15160714D01*
X3071428Y-15232143D01*
X3071428Y-15446429D01*
X3107142Y-15517857D01*
X3142856Y-15553571D01*
X3214285Y-15589286D01*
X3357142Y-15589286D01*
X3428571Y-15553571D01*
X2428571Y-15589286D02*
X2428571Y-15196429D01*
X2464285Y-15125000D01*
X2535714Y-15089286D01*
X2678571Y-15089286D01*
X2750000Y-15125000D01*
X2428571Y-15553571D02*
X2500000Y-15589286D01*
X2678571Y-15589286D01*
X2750000Y-15553571D01*
X2785714Y-15482143D01*
X2785714Y-15410714D01*
X2750000Y-15339286D01*
X2678571Y-15303571D01*
X2500000Y-15303571D01*
X2428571Y-15267857D01*
X2178571Y-15089286D02*
X1892857Y-15089286D01*
X2071429Y-14839286D02*
X2071429Y-15482143D01*
X2035714Y-15553571D01*
X1964286Y-15589286D01*
X1892857Y-15589286D01*
X1785714Y-12839286D02*
X1607143Y-13339286D01*
X1428571Y-12839286D01*
X1035714Y-13339286D02*
X1107142Y-13303571D01*
X1142857Y-13232143D01*
X1142857Y-12589286D01*
X464285Y-13303571D02*
X535714Y-13339286D01*
X678571Y-13339286D01*
X750000Y-13303571D01*
X785714Y-13232143D01*
X785714Y-12946429D01*
X750000Y-12875000D01*
X678571Y-12839286D01*
X535714Y-12839286D01*
X464285Y-12875000D01*
X428571Y-12946429D01*
X428571Y-13017857D01*
X785714Y-13089286D01*
X-214286Y-13339286D02*
X-214286Y-12589286D01*
X-214286Y-13303571D02*
X-142857Y-13339286D01*
X0Y-13339286D01*
X71428Y-13303571D01*
X107143Y-13267857D01*
X142857Y-13196429D01*
X142857Y-12982143D01*
X107143Y-12910714D01*
X71428Y-12875000D01*
X0Y-12839286D01*
X-142857Y-12839286D01*
X-214286Y-12875000D01*
X-767858Y-12589286D02*
X-767858Y-11839286D01*
X-767858Y-12553571D02*
X-696429Y-12589286D01*
X-553572Y-12589286D01*
X-482144Y-12553571D01*
X-446429Y-12517857D01*
X-410715Y-12446429D01*
X-410715Y-12232143D01*
X-446429Y-12160714D01*
X-482144Y-12125000D01*
X-553572Y-12089286D01*
X-696429Y-12089286D01*
X-767858Y-12125000D01*
X-1446429Y-12589286D02*
X-1446429Y-12196429D01*
X-1410715Y-12125000D01*
X-1339286Y-12089286D01*
X-1196429Y-12089286D01*
X-1125000Y-12125000D01*
X-1446429Y-12553571D02*
X-1375000Y-12589286D01*
X-1196429Y-12589286D01*
X-1125000Y-12553571D01*
X-1089286Y-12482143D01*
X-1089286Y-12410714D01*
X-1125000Y-12339286D01*
X-1196429Y-12303571D01*
X-1375000Y-12303571D01*
X-1446429Y-12267857D01*
X-1696429Y-12089286D02*
X-1982143Y-12089286D01*
X-1803571Y-11839286D02*
X-1803571Y-12482143D01*
X-1839286Y-12553571D01*
X-1910714Y-12589286D01*
X-1982143Y-12589286D01*
X-2553571Y-12589286D02*
X-2553571Y-12196429D01*
X-2517857Y-12125000D01*
X-2446428Y-12089286D01*
X-2303571Y-12089286D01*
X-2232142Y-12125000D01*
X-2553571Y-12553571D02*
X-2482142Y-12589286D01*
X-2303571Y-12589286D01*
X-2232142Y-12553571D01*
X-2196428Y-12482143D01*
X-2196428Y-12410714D01*
X-2232142Y-12339286D01*
X-2303571Y-12303571D01*
X-2482142Y-12303571D01*
X-2553571Y-12267857D01*
X-8280952Y-21371429D02*
X-7519047Y-21371429D01*
X7419048Y-21071429D02*
X8180953Y-21071429D01*
X7800001Y-21452381D02*
X7800001Y-20690476D01*
X27419048Y-21071429D02*
X28180953Y-21071429D01*
X27800001Y-21452381D02*
X27800001Y-20690476D01*
X11719048Y-21371429D02*
X12480953Y-21371429D01*
X19232142Y-12589286D02*
X19232142Y-11839286D01*
X19232142Y-12553571D02*
X19303571Y-12589286D01*
X19446428Y-12589286D01*
X19517856Y-12553571D01*
X19553571Y-12517857D01*
X19589285Y-12446429D01*
X19589285Y-12232143D01*
X19553571Y-12160714D01*
X19517856Y-12125000D01*
X19446428Y-12089286D01*
X19303571Y-12089286D01*
X19232142Y-12125000D01*
X18553571Y-12589286D02*
X18553571Y-12196429D01*
X18589285Y-12125000D01*
X18660714Y-12089286D01*
X18803571Y-12089286D01*
X18875000Y-12125000D01*
X18553571Y-12553571D02*
X18625000Y-12589286D01*
X18803571Y-12589286D01*
X18875000Y-12553571D01*
X18910714Y-12482143D01*
X18910714Y-12410714D01*
X18875000Y-12339286D01*
X18803571Y-12303571D01*
X18625000Y-12303571D01*
X18553571Y-12267857D01*
X18303571Y-12089286D02*
X18017857Y-12089286D01*
X18196429Y-11839286D02*
X18196429Y-12482143D01*
X18160714Y-12553571D01*
X18089286Y-12589286D01*
X18017857Y-12589286D01*
X17446429Y-12589286D02*
X17446429Y-12196429D01*
X17482143Y-12125000D01*
X17553572Y-12089286D01*
X17696429Y-12089286D01*
X17767858Y-12125000D01*
X17446429Y-12553571D02*
X17517858Y-12589286D01*
X17696429Y-12589286D01*
X17767858Y-12553571D01*
X17803572Y-12482143D01*
X17803572Y-12410714D01*
X17767858Y-12339286D01*
X17696429Y-12303571D01*
X17517858Y-12303571D01*
X17446429Y-12267857D01*
X21785714Y-12839286D02*
X21607143Y-13339286D01*
X21428571Y-12839286D01*
X21035714Y-13339286D02*
X21107142Y-13303571D01*
X21142857Y-13232143D01*
X21142857Y-12589286D01*
X20464285Y-13303571D02*
X20535714Y-13339286D01*
X20678571Y-13339286D01*
X20750000Y-13303571D01*
X20785714Y-13232143D01*
X20785714Y-12946429D01*
X20750000Y-12875000D01*
X20678571Y-12839286D01*
X20535714Y-12839286D01*
X20464285Y-12875000D01*
X20428571Y-12946429D01*
X20428571Y-13017857D01*
X20785714Y-13089286D01*
X19785714Y-13339286D02*
X19785714Y-12589286D01*
X19785714Y-13303571D02*
X19857143Y-13339286D01*
X20000000Y-13339286D01*
X20071428Y-13303571D01*
X20107143Y-13267857D01*
X20142857Y-13196429D01*
X20142857Y-12982143D01*
X20107143Y-12910714D01*
X20071428Y-12875000D01*
X20000000Y-12839286D01*
X19857143Y-12839286D01*
X19785714Y-12875000D01*
X24071428Y-15089286D02*
X23892857Y-15589286D01*
X23714285Y-15089286D01*
X23428571Y-15589286D02*
X23428571Y-14839286D01*
X23428571Y-15125000D02*
X23357142Y-15089286D01*
X23214285Y-15089286D01*
X23142856Y-15125000D01*
X23107142Y-15160714D01*
X23071428Y-15232143D01*
X23071428Y-15446429D01*
X23107142Y-15517857D01*
X23142856Y-15553571D01*
X23214285Y-15589286D01*
X23357142Y-15589286D01*
X23428571Y-15553571D01*
X22428571Y-15589286D02*
X22428571Y-15196429D01*
X22464285Y-15125000D01*
X22535714Y-15089286D01*
X22678571Y-15089286D01*
X22750000Y-15125000D01*
X22428571Y-15553571D02*
X22500000Y-15589286D01*
X22678571Y-15589286D01*
X22750000Y-15553571D01*
X22785714Y-15482143D01*
X22785714Y-15410714D01*
X22750000Y-15339286D01*
X22678571Y-15303571D01*
X22500000Y-15303571D01*
X22428571Y-15267857D01*
X22178571Y-15089286D02*
X21892857Y-15089286D01*
X22071429Y-14839286D02*
X22071429Y-15482143D01*
X22035714Y-15553571D01*
X21964286Y-15589286D01*
X21892857Y-15589286D01*
X24071428Y4910714D02*
X23892857Y4410714D01*
X23714285Y4910714D01*
X23428571Y4410714D02*
X23428571Y5160714D01*
X23428571Y4875000D02*
X23357142Y4910714D01*
X23214285Y4910714D01*
X23142856Y4875000D01*
X23107142Y4839286D01*
X23071428Y4767857D01*
X23071428Y4553571D01*
X23107142Y4482143D01*
X23142856Y4446429D01*
X23214285Y4410714D01*
X23357142Y4410714D01*
X23428571Y4446429D01*
X22428571Y4410714D02*
X22428571Y4803571D01*
X22464285Y4875000D01*
X22535714Y4910714D01*
X22678571Y4910714D01*
X22750000Y4875000D01*
X22428571Y4446429D02*
X22500000Y4410714D01*
X22678571Y4410714D01*
X22750000Y4446429D01*
X22785714Y4517857D01*
X22785714Y4589286D01*
X22750000Y4660714D01*
X22678571Y4696429D01*
X22500000Y4696429D01*
X22428571Y4732143D01*
X22178571Y4910714D02*
X21892857Y4910714D01*
X22071429Y5160714D02*
X22071429Y4517857D01*
X22035714Y4446429D01*
X21964286Y4410714D01*
X21892857Y4410714D01*
X21785714Y7160714D02*
X21607143Y6660714D01*
X21428571Y7160714D01*
X21035714Y6660714D02*
X21107142Y6696429D01*
X21142857Y6767857D01*
X21142857Y7410714D01*
X20464285Y6696429D02*
X20535714Y6660714D01*
X20678571Y6660714D01*
X20750000Y6696429D01*
X20785714Y6767857D01*
X20785714Y7053571D01*
X20750000Y7125000D01*
X20678571Y7160714D01*
X20535714Y7160714D01*
X20464285Y7125000D01*
X20428571Y7053571D01*
X20428571Y6982143D01*
X20785714Y6910714D01*
X19785714Y6660714D02*
X19785714Y7410714D01*
X19785714Y6696429D02*
X19857143Y6660714D01*
X20000000Y6660714D01*
X20071428Y6696429D01*
X20107143Y6732143D01*
X20142857Y6803571D01*
X20142857Y7017857D01*
X20107143Y7089286D01*
X20071428Y7125000D01*
X20000000Y7160714D01*
X19857143Y7160714D01*
X19785714Y7125000D01*
X19232142Y7410714D02*
X19232142Y8160714D01*
X19232142Y7446429D02*
X19303571Y7410714D01*
X19446428Y7410714D01*
X19517856Y7446429D01*
X19553571Y7482143D01*
X19589285Y7553571D01*
X19589285Y7767857D01*
X19553571Y7839286D01*
X19517856Y7875000D01*
X19446428Y7910714D01*
X19303571Y7910714D01*
X19232142Y7875000D01*
X18553571Y7410714D02*
X18553571Y7803571D01*
X18589285Y7875000D01*
X18660714Y7910714D01*
X18803571Y7910714D01*
X18875000Y7875000D01*
X18553571Y7446429D02*
X18625000Y7410714D01*
X18803571Y7410714D01*
X18875000Y7446429D01*
X18910714Y7517857D01*
X18910714Y7589286D01*
X18875000Y7660714D01*
X18803571Y7696429D01*
X18625000Y7696429D01*
X18553571Y7732143D01*
X18303571Y7910714D02*
X18017857Y7910714D01*
X18196429Y8160714D02*
X18196429Y7517857D01*
X18160714Y7446429D01*
X18089286Y7410714D01*
X18017857Y7410714D01*
X17446429Y7410714D02*
X17446429Y7803571D01*
X17482143Y7875000D01*
X17553572Y7910714D01*
X17696429Y7910714D01*
X17767858Y7875000D01*
X17446429Y7446429D02*
X17517858Y7410714D01*
X17696429Y7410714D01*
X17767858Y7446429D01*
X17803572Y7517857D01*
X17803572Y7589286D01*
X17767858Y7660714D01*
X17696429Y7696429D01*
X17517858Y7696429D01*
X17446429Y7732143D01*
X11719048Y-1371429D02*
X12480953Y-1371429D01*
X27419048Y-1071429D02*
X28180953Y-1071429D01*
X27800001Y-1452381D02*
X27800001Y-690476D01*
X7419048Y-1071429D02*
X8180953Y-1071429D01*
X7800001Y-1452381D02*
X7800001Y-690476D01*
X-8280952Y-1371429D02*
X-7519047Y-1371429D01*
X-767858Y7410714D02*
X-767858Y8160714D01*
X-767858Y7446429D02*
X-696429Y7410714D01*
X-553572Y7410714D01*
X-482144Y7446429D01*
X-446429Y7482143D01*
X-410715Y7553571D01*
X-410715Y7767857D01*
X-446429Y7839286D01*
X-482144Y7875000D01*
X-553572Y7910714D01*
X-696429Y7910714D01*
X-767858Y7875000D01*
X-1446429Y7410714D02*
X-1446429Y7803571D01*
X-1410715Y7875000D01*
X-1339286Y7910714D01*
X-1196429Y7910714D01*
X-1125000Y7875000D01*
X-1446429Y7446429D02*
X-1375000Y7410714D01*
X-1196429Y7410714D01*
X-1125000Y7446429D01*
X-1089286Y7517857D01*
X-1089286Y7589286D01*
X-1125000Y7660714D01*
X-1196429Y7696429D01*
X-1375000Y7696429D01*
X-1446429Y7732143D01*
X-1696429Y7910714D02*
X-1982143Y7910714D01*
X-1803571Y8160714D02*
X-1803571Y7517857D01*
X-1839286Y7446429D01*
X-1910714Y7410714D01*
X-1982143Y7410714D01*
X-2553571Y7410714D02*
X-2553571Y7803571D01*
X-2517857Y7875000D01*
X-2446428Y7910714D01*
X-2303571Y7910714D01*
X-2232142Y7875000D01*
X-2553571Y7446429D02*
X-2482142Y7410714D01*
X-2303571Y7410714D01*
X-2232142Y7446429D01*
X-2196428Y7517857D01*
X-2196428Y7589286D01*
X-2232142Y7660714D01*
X-2303571Y7696429D01*
X-2482142Y7696429D01*
X-2553571Y7732143D01*
X1785714Y7160714D02*
X1607143Y6660714D01*
X1428571Y7160714D01*
X1035714Y6660714D02*
X1107142Y6696429D01*
X1142857Y6767857D01*
X1142857Y7410714D01*
X464285Y6696429D02*
X535714Y6660714D01*
X678571Y6660714D01*
X750000Y6696429D01*
X785714Y6767857D01*
X785714Y7053571D01*
X750000Y7125000D01*
X678571Y7160714D01*
X535714Y7160714D01*
X464285Y7125000D01*
X428571Y7053571D01*
X428571Y6982143D01*
X785714Y6910714D01*
X-214286Y6660714D02*
X-214286Y7410714D01*
X-214286Y6696429D02*
X-142857Y6660714D01*
X0Y6660714D01*
X71428Y6696429D01*
X107143Y6732143D01*
X142857Y6803571D01*
X142857Y7017857D01*
X107143Y7089286D01*
X71428Y7125000D01*
X0Y7160714D01*
X-142857Y7160714D01*
X-214286Y7125000D01*
X4071428Y4910714D02*
X3892857Y4410714D01*
X3714285Y4910714D01*
X3428571Y4410714D02*
X3428571Y5160714D01*
X3428571Y4875000D02*
X3357142Y4910714D01*
X3214285Y4910714D01*
X3142856Y4875000D01*
X3107142Y4839286D01*
X3071428Y4767857D01*
X3071428Y4553571D01*
X3107142Y4482143D01*
X3142856Y4446429D01*
X3214285Y4410714D01*
X3357142Y4410714D01*
X3428571Y4446429D01*
X2428571Y4410714D02*
X2428571Y4803571D01*
X2464285Y4875000D01*
X2535714Y4910714D01*
X2678571Y4910714D01*
X2750000Y4875000D01*
X2428571Y4446429D02*
X2500000Y4410714D01*
X2678571Y4410714D01*
X2750000Y4446429D01*
X2785714Y4517857D01*
X2785714Y4589286D01*
X2750000Y4660714D01*
X2678571Y4696429D01*
X2500000Y4696429D01*
X2428571Y4732143D01*
X2178571Y4910714D02*
X1892857Y4910714D01*
X2071429Y5160714D02*
X2071429Y4517857D01*
X2035714Y4446429D01*
X1964286Y4410714D01*
X1892857Y4410714D01*
X607143Y-19696429D02*
X500000Y-19732143D01*
X464285Y-19767857D01*
X428571Y-19839286D01*
X428571Y-19946429D01*
X464285Y-20017857D01*
X500000Y-20053571D01*
X571428Y-20089286D01*
X857143Y-20089286D01*
X857143Y-19339286D01*
X607143Y-19339286D01*
X535714Y-19375000D01*
X500000Y-19410714D01*
X464285Y-19482143D01*
X464285Y-19553571D01*
X500000Y-19625000D01*
X535714Y-19660714D01*
X607143Y-19696429D01*
X857143Y-19696429D01*
X142857Y-20053571D02*
X35714Y-20089286D01*
X-142857Y-20089286D01*
X-214286Y-20053571D01*
X-250000Y-20017857D01*
X-285715Y-19946429D01*
X-285715Y-19875000D01*
X-250000Y-19803571D01*
X-214286Y-19767857D01*
X-142857Y-19732143D01*
X0Y-19696429D01*
X71428Y-19660714D01*
X107143Y-19625000D01*
X142857Y-19553571D01*
X142857Y-19482143D01*
X107143Y-19410714D01*
X71428Y-19375000D01*
X0Y-19339286D01*
X-178572Y-19339286D01*
X-285715Y-19375000D01*
X-964286Y-20089286D02*
X-607143Y-20089286D01*
X-607143Y-19339286D01*
X3500000Y-20539286D02*
X3214286Y-20539286D01*
X3392858Y-20289286D02*
X3392858Y-20932143D01*
X3357143Y-21003571D01*
X3285715Y-21039286D01*
X3214286Y-21039286D01*
X3035715Y-21039286D02*
X2642858Y-20539286D01*
X3035715Y-20539286D02*
X2642858Y-21039286D01*
X1785715Y-21039286D02*
X1785715Y-20539286D01*
X1785715Y-20682143D02*
X1750000Y-20610714D01*
X1714286Y-20575000D01*
X1642857Y-20539286D01*
X1571429Y-20539286D01*
X1392857Y-21039286D02*
X1000000Y-20539286D01*
X1392857Y-20539286D02*
X1000000Y-21039286D01*
X142857Y-20967857D02*
X107142Y-21003571D01*
X142857Y-21039286D01*
X178571Y-21003571D01*
X142857Y-20967857D01*
X142857Y-21039286D01*
X142857Y-20753571D02*
X178571Y-20325000D01*
X142857Y-20289286D01*
X107142Y-20325000D01*
X142857Y-20753571D01*
X142857Y-20289286D01*
X-214286Y-21039286D02*
X-214286Y-20539286D01*
X-214286Y-20682143D02*
X-250001Y-20610714D01*
X-285715Y-20575000D01*
X-357144Y-20539286D01*
X-428572Y-20539286D01*
X-642858Y-21003571D02*
X-714287Y-21039286D01*
X-857144Y-21039286D01*
X-928572Y-21003571D01*
X-964287Y-20932143D01*
X-964287Y-20896429D01*
X-928572Y-20825000D01*
X-857144Y-20789286D01*
X-750001Y-20789286D01*
X-678572Y-20753571D01*
X-642858Y-20682143D01*
X-642858Y-20646429D01*
X-678572Y-20575000D01*
X-750001Y-20539286D01*
X-857144Y-20539286D01*
X-928572Y-20575000D01*
X-1178573Y-20539286D02*
X-1464287Y-20539286D01*
X-1285715Y-20289286D02*
X-1285715Y-20932143D01*
X-1321430Y-21003571D01*
X-1392858Y-21039286D01*
X-1464287Y-21039286D01*
X-2178573Y-20539286D02*
X-2464287Y-20539286D01*
X-2285715Y-20289286D02*
X-2285715Y-20932143D01*
X-2321430Y-21003571D01*
X-2392858Y-21039286D01*
X-2464287Y-21039286D01*
X-2678572Y-21003571D02*
X-2750001Y-21039286D01*
X-2892858Y-21039286D01*
X-2964286Y-21003571D01*
X-3000001Y-20932143D01*
X-3000001Y-20896429D01*
X-2964286Y-20825000D01*
X-2892858Y-20789286D01*
X-2785715Y-20789286D01*
X-2714286Y-20753571D01*
X-2678572Y-20682143D01*
X-2678572Y-20646429D01*
X-2714286Y-20575000D01*
X-2785715Y-20539286D01*
X-2892858Y-20539286D01*
X-2964286Y-20575000D01*
X-3214287Y-20539286D02*
X-3500001Y-20539286D01*
X-3321429Y-20289286D02*
X-3321429Y-20932143D01*
X-3357144Y-21003571D01*
X-3428572Y-21039286D01*
X-3500001Y-21039286D01*
X20607143Y-19696429D02*
X20500000Y-19732143D01*
X20464285Y-19767857D01*
X20428571Y-19839286D01*
X20428571Y-19946429D01*
X20464285Y-20017857D01*
X20500000Y-20053571D01*
X20571428Y-20089286D01*
X20857143Y-20089286D01*
X20857143Y-19339286D01*
X20607143Y-19339286D01*
X20535714Y-19375000D01*
X20500000Y-19410714D01*
X20464285Y-19482143D01*
X20464285Y-19553571D01*
X20500000Y-19625000D01*
X20535714Y-19660714D01*
X20607143Y-19696429D01*
X20857143Y-19696429D01*
X20142857Y-20053571D02*
X20035714Y-20089286D01*
X19857143Y-20089286D01*
X19785714Y-20053571D01*
X19750000Y-20017857D01*
X19714285Y-19946429D01*
X19714285Y-19875000D01*
X19750000Y-19803571D01*
X19785714Y-19767857D01*
X19857143Y-19732143D01*
X20000000Y-19696429D01*
X20071428Y-19660714D01*
X20107143Y-19625000D01*
X20142857Y-19553571D01*
X20142857Y-19482143D01*
X20107143Y-19410714D01*
X20071428Y-19375000D01*
X20000000Y-19339286D01*
X19821428Y-19339286D01*
X19714285Y-19375000D01*
X19035714Y-20089286D02*
X19392857Y-20089286D01*
X19392857Y-19339286D01*
X23500000Y-20539286D02*
X23214286Y-20539286D01*
X23392858Y-20289286D02*
X23392858Y-20932143D01*
X23357143Y-21003571D01*
X23285715Y-21039286D01*
X23214286Y-21039286D01*
X23035715Y-21039286D02*
X22642858Y-20539286D01*
X23035715Y-20539286D02*
X22642858Y-21039286D01*
X21785715Y-21039286D02*
X21785715Y-20539286D01*
X21785715Y-20682143D02*
X21750000Y-20610714D01*
X21714286Y-20575000D01*
X21642857Y-20539286D01*
X21571429Y-20539286D01*
X21392857Y-21039286D02*
X21000000Y-20539286D01*
X21392857Y-20539286D02*
X21000000Y-21039286D01*
X20142857Y-20967857D02*
X20107142Y-21003571D01*
X20142857Y-21039286D01*
X20178571Y-21003571D01*
X20142857Y-20967857D01*
X20142857Y-21039286D01*
X20142857Y-20753571D02*
X20178571Y-20325000D01*
X20142857Y-20289286D01*
X20107142Y-20325000D01*
X20142857Y-20753571D01*
X20142857Y-20289286D01*
X19785714Y-21039286D02*
X19785714Y-20539286D01*
X19785714Y-20682143D02*
X19749999Y-20610714D01*
X19714285Y-20575000D01*
X19642856Y-20539286D01*
X19571428Y-20539286D01*
X19357142Y-21003571D02*
X19285713Y-21039286D01*
X19142856Y-21039286D01*
X19071428Y-21003571D01*
X19035713Y-20932143D01*
X19035713Y-20896429D01*
X19071428Y-20825000D01*
X19142856Y-20789286D01*
X19249999Y-20789286D01*
X19321428Y-20753571D01*
X19357142Y-20682143D01*
X19357142Y-20646429D01*
X19321428Y-20575000D01*
X19249999Y-20539286D01*
X19142856Y-20539286D01*
X19071428Y-20575000D01*
X18821427Y-20539286D02*
X18535713Y-20539286D01*
X18714285Y-20289286D02*
X18714285Y-20932143D01*
X18678570Y-21003571D01*
X18607142Y-21039286D01*
X18535713Y-21039286D01*
X17821427Y-20539286D02*
X17535713Y-20539286D01*
X17714285Y-20289286D02*
X17714285Y-20932143D01*
X17678570Y-21003571D01*
X17607142Y-21039286D01*
X17535713Y-21039286D01*
X17321428Y-21003571D02*
X17249999Y-21039286D01*
X17107142Y-21039286D01*
X17035714Y-21003571D01*
X16999999Y-20932143D01*
X16999999Y-20896429D01*
X17035714Y-20825000D01*
X17107142Y-20789286D01*
X17214285Y-20789286D01*
X17285714Y-20753571D01*
X17321428Y-20682143D01*
X17321428Y-20646429D01*
X17285714Y-20575000D01*
X17214285Y-20539286D01*
X17107142Y-20539286D01*
X17035714Y-20575000D01*
X16785713Y-20539286D02*
X16499999Y-20539286D01*
X16678571Y-20289286D02*
X16678571Y-20932143D01*
X16642856Y-21003571D01*
X16571428Y-21039286D01*
X16499999Y-21039286D01*
X20607143Y303571D02*
X20500000Y267857D01*
X20464285Y232143D01*
X20428571Y160714D01*
X20428571Y53571D01*
X20464285Y-17857D01*
X20500000Y-53571D01*
X20571428Y-89286D01*
X20857143Y-89286D01*
X20857143Y660714D01*
X20607143Y660714D01*
X20535714Y625000D01*
X20500000Y589286D01*
X20464285Y517857D01*
X20464285Y446429D01*
X20500000Y375000D01*
X20535714Y339286D01*
X20607143Y303571D01*
X20857143Y303571D01*
X20142857Y-53571D02*
X20035714Y-89286D01*
X19857143Y-89286D01*
X19785714Y-53571D01*
X19750000Y-17857D01*
X19714285Y53571D01*
X19714285Y125000D01*
X19750000Y196429D01*
X19785714Y232143D01*
X19857143Y267857D01*
X20000000Y303571D01*
X20071428Y339286D01*
X20107143Y375000D01*
X20142857Y446429D01*
X20142857Y517857D01*
X20107143Y589286D01*
X20071428Y625000D01*
X20000000Y660714D01*
X19821428Y660714D01*
X19714285Y625000D01*
X19035714Y-89286D02*
X19392857Y-89286D01*
X19392857Y660714D01*
X23500000Y-539286D02*
X23214286Y-539286D01*
X23392858Y-289286D02*
X23392858Y-932143D01*
X23357143Y-1003571D01*
X23285715Y-1039286D01*
X23214286Y-1039286D01*
X23035715Y-1039286D02*
X22642858Y-539286D01*
X23035715Y-539286D02*
X22642858Y-1039286D01*
X21785715Y-1039286D02*
X21785715Y-539286D01*
X21785715Y-682143D02*
X21750000Y-610714D01*
X21714286Y-575000D01*
X21642857Y-539286D01*
X21571429Y-539286D01*
X21392857Y-1039286D02*
X21000000Y-539286D01*
X21392857Y-539286D02*
X21000000Y-1039286D01*
X20142857Y-967857D02*
X20107142Y-1003571D01*
X20142857Y-1039286D01*
X20178571Y-1003571D01*
X20142857Y-967857D01*
X20142857Y-1039286D01*
X20142857Y-753571D02*
X20178571Y-325000D01*
X20142857Y-289286D01*
X20107142Y-325000D01*
X20142857Y-753571D01*
X20142857Y-289286D01*
X19785714Y-1039286D02*
X19785714Y-539286D01*
X19785714Y-682143D02*
X19749999Y-610714D01*
X19714285Y-575000D01*
X19642856Y-539286D01*
X19571428Y-539286D01*
X19357142Y-1003571D02*
X19285713Y-1039286D01*
X19142856Y-1039286D01*
X19071428Y-1003571D01*
X19035713Y-932143D01*
X19035713Y-896429D01*
X19071428Y-825000D01*
X19142856Y-789286D01*
X19249999Y-789286D01*
X19321428Y-753571D01*
X19357142Y-682143D01*
X19357142Y-646429D01*
X19321428Y-575000D01*
X19249999Y-539286D01*
X19142856Y-539286D01*
X19071428Y-575000D01*
X18821427Y-539286D02*
X18535713Y-539286D01*
X18714285Y-289286D02*
X18714285Y-932143D01*
X18678570Y-1003571D01*
X18607142Y-1039286D01*
X18535713Y-1039286D01*
X17821427Y-539286D02*
X17535713Y-539286D01*
X17714285Y-289286D02*
X17714285Y-932143D01*
X17678570Y-1003571D01*
X17607142Y-1039286D01*
X17535713Y-1039286D01*
X17321428Y-1003571D02*
X17249999Y-1039286D01*
X17107142Y-1039286D01*
X17035714Y-1003571D01*
X16999999Y-932143D01*
X16999999Y-896429D01*
X17035714Y-825000D01*
X17107142Y-789286D01*
X17214285Y-789286D01*
X17285714Y-753571D01*
X17321428Y-682143D01*
X17321428Y-646429D01*
X17285714Y-575000D01*
X17214285Y-539286D01*
X17107142Y-539286D01*
X17035714Y-575000D01*
X16785713Y-539286D02*
X16499999Y-539286D01*
X16678571Y-289286D02*
X16678571Y-932143D01*
X16642856Y-1003571D01*
X16571428Y-1039286D01*
X16499999Y-1039286D01*
X607143Y303571D02*
X500000Y267857D01*
X464285Y232143D01*
X428571Y160714D01*
X428571Y53571D01*
X464285Y-17857D01*
X500000Y-53571D01*
X571428Y-89286D01*
X857143Y-89286D01*
X857143Y660714D01*
X607143Y660714D01*
X535714Y625000D01*
X500000Y589286D01*
X464285Y517857D01*
X464285Y446429D01*
X500000Y375000D01*
X535714Y339286D01*
X607143Y303571D01*
X857143Y303571D01*
X142857Y-53571D02*
X35714Y-89286D01*
X-142857Y-89286D01*
X-214286Y-53571D01*
X-250000Y-17857D01*
X-285715Y53571D01*
X-285715Y125000D01*
X-250000Y196429D01*
X-214286Y232143D01*
X-142857Y267857D01*
X0Y303571D01*
X71428Y339286D01*
X107143Y375000D01*
X142857Y446429D01*
X142857Y517857D01*
X107143Y589286D01*
X71428Y625000D01*
X0Y660714D01*
X-178572Y660714D01*
X-285715Y625000D01*
X-964286Y-89286D02*
X-607143Y-89286D01*
X-607143Y660714D01*
X3500000Y-539286D02*
X3214286Y-539286D01*
X3392858Y-289286D02*
X3392858Y-932143D01*
X3357143Y-1003571D01*
X3285715Y-1039286D01*
X3214286Y-1039286D01*
X3035715Y-1039286D02*
X2642858Y-539286D01*
X3035715Y-539286D02*
X2642858Y-1039286D01*
X1785715Y-1039286D02*
X1785715Y-539286D01*
X1785715Y-682143D02*
X1750000Y-610714D01*
X1714286Y-575000D01*
X1642857Y-539286D01*
X1571429Y-539286D01*
X1392857Y-1039286D02*
X1000000Y-539286D01*
X1392857Y-539286D02*
X1000000Y-1039286D01*
X142857Y-967857D02*
X107142Y-1003571D01*
X142857Y-1039286D01*
X178571Y-1003571D01*
X142857Y-967857D01*
X142857Y-1039286D01*
X142857Y-753571D02*
X178571Y-325000D01*
X142857Y-289286D01*
X107142Y-325000D01*
X142857Y-753571D01*
X142857Y-289286D01*
X-214286Y-1039286D02*
X-214286Y-539286D01*
X-214286Y-682143D02*
X-250001Y-610714D01*
X-285715Y-575000D01*
X-357144Y-539286D01*
X-428572Y-539286D01*
X-642858Y-1003571D02*
X-714287Y-1039286D01*
X-857144Y-1039286D01*
X-928572Y-1003571D01*
X-964287Y-932143D01*
X-964287Y-896429D01*
X-928572Y-825000D01*
X-857144Y-789286D01*
X-750001Y-789286D01*
X-678572Y-753571D01*
X-642858Y-682143D01*
X-642858Y-646429D01*
X-678572Y-575000D01*
X-750001Y-539286D01*
X-857144Y-539286D01*
X-928572Y-575000D01*
X-1178573Y-539286D02*
X-1464287Y-539286D01*
X-1285715Y-289286D02*
X-1285715Y-932143D01*
X-1321430Y-1003571D01*
X-1392858Y-1039286D01*
X-1464287Y-1039286D01*
X-2178573Y-539286D02*
X-2464287Y-539286D01*
X-2285715Y-289286D02*
X-2285715Y-932143D01*
X-2321430Y-1003571D01*
X-2392858Y-1039286D01*
X-2464287Y-1039286D01*
X-2678572Y-1003571D02*
X-2750001Y-1039286D01*
X-2892858Y-1039286D01*
X-2964286Y-1003571D01*
X-3000001Y-932143D01*
X-3000001Y-896429D01*
X-2964286Y-825000D01*
X-2892858Y-789286D01*
X-2785715Y-789286D01*
X-2714286Y-753571D01*
X-2678572Y-682143D01*
X-2678572Y-646429D01*
X-2714286Y-575000D01*
X-2785715Y-539286D01*
X-2892858Y-539286D01*
X-2964286Y-575000D01*
X-3214287Y-539286D02*
X-3500001Y-539286D01*
X-3321429Y-289286D02*
X-3321429Y-932143D01*
X-3357144Y-1003571D01*
X-3428572Y-1039286D01*
X-3500001Y-1039286D01*
M02*
