G04 #@! TF.FileFunction,Soldermask,Top*
%FSLAX46Y46*%
G04 Gerber Fmt 4.6, Leading zero omitted, Abs format (unit mm)*
G04 Created by KiCad (PCBNEW 4.0.7+dfsg1-1) date Fri Jun  1 01:11:19 2018*
%MOMM*%
%LPD*%
G01*
G04 APERTURE LIST*
%ADD10C,0.100000*%
%ADD11C,2.540000*%
%ADD12R,0.704800X0.904800*%
%ADD13R,0.904800X0.704800*%
%ADD14C,1.304800*%
%ADD15R,0.604800X1.004800*%
%ADD16R,0.604800X0.754800*%
%ADD17R,1.104800X1.204800*%
%ADD18R,1.364800X0.954800*%
%ADD19C,3.104800*%
%ADD20R,1.104800X0.904800*%
%ADD21R,1.150000X1.050000*%
%ADD22R,1.104800X1.304800*%
%ADD23R,1.104800X3.304800*%
%ADD24C,0.904800*%
%ADD25R,4.240000X4.240000*%
%ADD26O,1.140000X0.420000*%
%ADD27O,0.420000X1.140000*%
G04 APERTURE END LIST*
D10*
D11*
X-10000000Y-30000000D03*
D12*
X-4410000Y-20090000D03*
X-5310000Y-20090000D03*
X6662000Y-18013000D03*
X7562000Y-18013000D03*
D13*
X4950000Y-25350000D03*
X4950000Y-24450000D03*
D12*
X3305000Y-23886000D03*
X4205000Y-23886000D03*
X4205000Y-23101000D03*
X3305000Y-23101000D03*
D10*
G36*
X6877722Y-21561513D02*
X7517513Y-20921722D01*
X8015882Y-21420091D01*
X7376091Y-22059882D01*
X6877722Y-21561513D01*
X6877722Y-21561513D01*
G37*
G36*
X7514118Y-22197909D02*
X8153909Y-21558118D01*
X8652278Y-22056487D01*
X8012487Y-22696278D01*
X7514118Y-22197909D01*
X7514118Y-22197909D01*
G37*
D12*
X35000Y-24384000D03*
X935000Y-24384000D03*
X4450000Y-17850000D03*
X5350000Y-17850000D03*
D13*
X4550000Y-18800000D03*
X4550000Y-19700000D03*
X4550000Y-21450000D03*
X4550000Y-20550000D03*
D12*
X-5550000Y-20890000D03*
X-4650000Y-20890000D03*
X-5310000Y-19320000D03*
X-4410000Y-19320000D03*
X-5300000Y-17600000D03*
X-4400000Y-17600000D03*
D13*
X-7300000Y-16750000D03*
X-7300000Y-15850000D03*
X-4500000Y-14050000D03*
X-4500000Y-13150000D03*
X-1200000Y-14250000D03*
X-1200000Y-13350000D03*
X-3600000Y-12850000D03*
X-3600000Y-13750000D03*
D14*
X2500000Y-12500000D03*
X4800000Y-14800000D03*
X-5300000Y-24900000D03*
X-4200000Y-23900000D03*
X321000Y-11735000D03*
D15*
X-7650000Y-19120000D03*
X-7010000Y-19120000D03*
X-6370000Y-19120000D03*
X-6370000Y-17870000D03*
X-7010000Y-17870000D03*
X-7650000Y-17870000D03*
D16*
X-2900000Y-12825000D03*
X-2400000Y-12825000D03*
X-1900000Y-12825000D03*
X-1900000Y-14175000D03*
X-2400000Y-14175000D03*
X-2900000Y-14175000D03*
D17*
X5050000Y-16900000D03*
X6950000Y-16900000D03*
X6000000Y-14900000D03*
D18*
X5550000Y-18850000D03*
X5550000Y-19800000D03*
X5550000Y-20750000D03*
X7750000Y-20750000D03*
X7750000Y-18850000D03*
D19*
X6000000Y-22800000D03*
D20*
X3600000Y-13150000D03*
X3600000Y-14850000D03*
D17*
X450000Y-14200000D03*
X2350000Y-14200000D03*
X1400000Y-12200000D03*
D19*
X-6000000Y-22800000D03*
D21*
X-4800000Y-15100000D03*
X-6250000Y-15100000D03*
X-6250000Y-16250000D03*
X-4800000Y-16250000D03*
D22*
X2250000Y-24300000D03*
X-750000Y-24300000D03*
X-2250000Y-24300000D03*
D23*
X4000000Y-26300000D03*
X-4000000Y-26300000D03*
D13*
X-450000Y-14250000D03*
X-450000Y-13350000D03*
D24*
X-8330000Y-19120000D03*
D13*
X-3997000Y-23159000D03*
X-3997000Y-22259000D03*
D25*
X0Y-19000000D03*
D26*
X3550000Y-19750000D03*
X3550000Y-19250000D03*
X3550000Y-18750000D03*
X3550000Y-18250000D03*
X3550000Y-20750000D03*
X3550000Y-21750000D03*
X3550000Y-21250000D03*
X3550000Y-20250000D03*
X3550000Y-17750000D03*
X3550000Y-16750000D03*
X3550000Y-17250000D03*
X3550000Y-16250000D03*
D27*
X750000Y-15450000D03*
X-250000Y-15450000D03*
X-1250000Y-15450000D03*
X-750000Y-15450000D03*
X250000Y-15450000D03*
X-2750000Y-15450000D03*
X-2250000Y-15450000D03*
X-1750000Y-15450000D03*
X1750000Y-15450000D03*
X1250000Y-15450000D03*
X2250000Y-15450000D03*
X2750000Y-15450000D03*
D26*
X-3550000Y-21750000D03*
X-3550000Y-20750000D03*
X-3550000Y-21250000D03*
X-3550000Y-17250000D03*
X-3550000Y-20250000D03*
X-3550000Y-19750000D03*
X-3550000Y-19250000D03*
X-3550000Y-16750000D03*
X-3550000Y-16250000D03*
X-3550000Y-17750000D03*
X-3550000Y-18750000D03*
X-3550000Y-18250000D03*
D27*
X-250000Y-22550000D03*
X750000Y-22550000D03*
X250000Y-22550000D03*
X-2250000Y-22550000D03*
X-2750000Y-22550000D03*
X-1250000Y-22550000D03*
X-1750000Y-22550000D03*
X-750000Y-22550000D03*
X1250000Y-22550000D03*
X2750000Y-22550000D03*
X1750000Y-22550000D03*
X2250000Y-22550000D03*
D25*
X20000000Y-19000000D03*
D26*
X23550000Y-19750000D03*
X23550000Y-19250000D03*
X23550000Y-18750000D03*
X23550000Y-18250000D03*
X23550000Y-20750000D03*
X23550000Y-21750000D03*
X23550000Y-21250000D03*
X23550000Y-20250000D03*
X23550000Y-17750000D03*
X23550000Y-16750000D03*
X23550000Y-17250000D03*
X23550000Y-16250000D03*
D27*
X20750000Y-15450000D03*
X19750000Y-15450000D03*
X18750000Y-15450000D03*
X19250000Y-15450000D03*
X20250000Y-15450000D03*
X17250000Y-15450000D03*
X17750000Y-15450000D03*
X18250000Y-15450000D03*
X21750000Y-15450000D03*
X21250000Y-15450000D03*
X22250000Y-15450000D03*
X22750000Y-15450000D03*
D26*
X16450000Y-21750000D03*
X16450000Y-20750000D03*
X16450000Y-21250000D03*
X16450000Y-17250000D03*
X16450000Y-20250000D03*
X16450000Y-19750000D03*
X16450000Y-19250000D03*
X16450000Y-16750000D03*
X16450000Y-16250000D03*
X16450000Y-17750000D03*
X16450000Y-18750000D03*
X16450000Y-18250000D03*
D27*
X19750000Y-22550000D03*
X20750000Y-22550000D03*
X20250000Y-22550000D03*
X17750000Y-22550000D03*
X17250000Y-22550000D03*
X18750000Y-22550000D03*
X18250000Y-22550000D03*
X19250000Y-22550000D03*
X21250000Y-22550000D03*
X22750000Y-22550000D03*
X21750000Y-22550000D03*
X22250000Y-22550000D03*
D13*
X16003000Y-23159000D03*
X16003000Y-22259000D03*
D24*
X11670000Y-19120000D03*
D13*
X19550000Y-14250000D03*
X19550000Y-13350000D03*
D22*
X22250000Y-24300000D03*
X19250000Y-24300000D03*
X17750000Y-24300000D03*
D23*
X24000000Y-26300000D03*
X16000000Y-26300000D03*
D21*
X15200000Y-15100000D03*
X13750000Y-15100000D03*
X13750000Y-16250000D03*
X15200000Y-16250000D03*
D19*
X14000000Y-22800000D03*
D17*
X20450000Y-14200000D03*
X22350000Y-14200000D03*
X21400000Y-12200000D03*
D20*
X23600000Y-13150000D03*
X23600000Y-14850000D03*
D19*
X26000000Y-22800000D03*
D18*
X25550000Y-18850000D03*
X25550000Y-19800000D03*
X25550000Y-20750000D03*
X27750000Y-20750000D03*
X27750000Y-18850000D03*
D17*
X25050000Y-16900000D03*
X26950000Y-16900000D03*
X26000000Y-14900000D03*
D16*
X17100000Y-12825000D03*
X17600000Y-12825000D03*
X18100000Y-12825000D03*
X18100000Y-14175000D03*
X17600000Y-14175000D03*
X17100000Y-14175000D03*
D15*
X12350000Y-19120000D03*
X12990000Y-19120000D03*
X13630000Y-19120000D03*
X13630000Y-17870000D03*
X12990000Y-17870000D03*
X12350000Y-17870000D03*
D14*
X20321000Y-11735000D03*
X15800000Y-23900000D03*
X14700000Y-24900000D03*
X24800000Y-14800000D03*
X22500000Y-12500000D03*
D13*
X16400000Y-12850000D03*
X16400000Y-13750000D03*
X18800000Y-14250000D03*
X18800000Y-13350000D03*
X15500000Y-14050000D03*
X15500000Y-13150000D03*
X12700000Y-16750000D03*
X12700000Y-15850000D03*
D12*
X14700000Y-17600000D03*
X15600000Y-17600000D03*
X14690000Y-19320000D03*
X15590000Y-19320000D03*
X14450000Y-20890000D03*
X15350000Y-20890000D03*
D13*
X24550000Y-21450000D03*
X24550000Y-20550000D03*
X24550000Y-18800000D03*
X24550000Y-19700000D03*
D12*
X24450000Y-17850000D03*
X25350000Y-17850000D03*
X20035000Y-24384000D03*
X20935000Y-24384000D03*
D10*
G36*
X26877722Y-21561513D02*
X27517513Y-20921722D01*
X28015882Y-21420091D01*
X27376091Y-22059882D01*
X26877722Y-21561513D01*
X26877722Y-21561513D01*
G37*
G36*
X27514118Y-22197909D02*
X28153909Y-21558118D01*
X28652278Y-22056487D01*
X28012487Y-22696278D01*
X27514118Y-22197909D01*
X27514118Y-22197909D01*
G37*
D12*
X24205000Y-23101000D03*
X23305000Y-23101000D03*
X23305000Y-23886000D03*
X24205000Y-23886000D03*
D13*
X24950000Y-25350000D03*
X24950000Y-24450000D03*
D12*
X26662000Y-18013000D03*
X27562000Y-18013000D03*
X15590000Y-20090000D03*
X14690000Y-20090000D03*
X15590000Y-90000D03*
X14690000Y-90000D03*
X26662000Y1987000D03*
X27562000Y1987000D03*
D13*
X24950000Y-5350000D03*
X24950000Y-4450000D03*
D12*
X23305000Y-3886000D03*
X24205000Y-3886000D03*
X24205000Y-3101000D03*
X23305000Y-3101000D03*
D10*
G36*
X26877722Y-1561513D02*
X27517513Y-921722D01*
X28015882Y-1420091D01*
X27376091Y-2059882D01*
X26877722Y-1561513D01*
X26877722Y-1561513D01*
G37*
G36*
X27514118Y-2197909D02*
X28153909Y-1558118D01*
X28652278Y-2056487D01*
X28012487Y-2696278D01*
X27514118Y-2197909D01*
X27514118Y-2197909D01*
G37*
D12*
X20035000Y-4384000D03*
X20935000Y-4384000D03*
X24450000Y2150000D03*
X25350000Y2150000D03*
D13*
X24550000Y1200000D03*
X24550000Y300000D03*
X24550000Y-1450000D03*
X24550000Y-550000D03*
D12*
X14450000Y-890000D03*
X15350000Y-890000D03*
X14690000Y680000D03*
X15590000Y680000D03*
X14700000Y2400000D03*
X15600000Y2400000D03*
D13*
X12700000Y3250000D03*
X12700000Y4150000D03*
X15500000Y5950000D03*
X15500000Y6850000D03*
X18800000Y5750000D03*
X18800000Y6650000D03*
X16400000Y7150000D03*
X16400000Y6250000D03*
D14*
X22500000Y7500000D03*
X24800000Y5200000D03*
X14700000Y-4900000D03*
X15800000Y-3900000D03*
X20321000Y8265000D03*
D15*
X12350000Y880000D03*
X12990000Y880000D03*
X13630000Y880000D03*
X13630000Y2130000D03*
X12990000Y2130000D03*
X12350000Y2130000D03*
D16*
X17100000Y7175000D03*
X17600000Y7175000D03*
X18100000Y7175000D03*
X18100000Y5825000D03*
X17600000Y5825000D03*
X17100000Y5825000D03*
D17*
X25050000Y3100000D03*
X26950000Y3100000D03*
X26000000Y5100000D03*
D18*
X25550000Y1150000D03*
X25550000Y200000D03*
X25550000Y-750000D03*
X27750000Y-750000D03*
X27750000Y1150000D03*
D19*
X26000000Y-2800000D03*
D20*
X23600000Y6850000D03*
X23600000Y5150000D03*
D17*
X20450000Y5800000D03*
X22350000Y5800000D03*
X21400000Y7800000D03*
D19*
X14000000Y-2800000D03*
D21*
X15200000Y4900000D03*
X13750000Y4900000D03*
X13750000Y3750000D03*
X15200000Y3750000D03*
D22*
X22250000Y-4300000D03*
X19250000Y-4300000D03*
X17750000Y-4300000D03*
D23*
X24000000Y-6300000D03*
X16000000Y-6300000D03*
D13*
X19550000Y5750000D03*
X19550000Y6650000D03*
D24*
X11670000Y880000D03*
D13*
X16003000Y-3159000D03*
X16003000Y-2259000D03*
D25*
X20000000Y1000000D03*
D26*
X23550000Y250000D03*
X23550000Y750000D03*
X23550000Y1250000D03*
X23550000Y1750000D03*
X23550000Y-750000D03*
X23550000Y-1750000D03*
X23550000Y-1250000D03*
X23550000Y-250000D03*
X23550000Y2250000D03*
X23550000Y3250000D03*
X23550000Y2750000D03*
X23550000Y3750000D03*
D27*
X20750000Y4550000D03*
X19750000Y4550000D03*
X18750000Y4550000D03*
X19250000Y4550000D03*
X20250000Y4550000D03*
X17250000Y4550000D03*
X17750000Y4550000D03*
X18250000Y4550000D03*
X21750000Y4550000D03*
X21250000Y4550000D03*
X22250000Y4550000D03*
X22750000Y4550000D03*
D26*
X16450000Y-1750000D03*
X16450000Y-750000D03*
X16450000Y-1250000D03*
X16450000Y2750000D03*
X16450000Y-250000D03*
X16450000Y250000D03*
X16450000Y750000D03*
X16450000Y3250000D03*
X16450000Y3750000D03*
X16450000Y2250000D03*
X16450000Y1250000D03*
X16450000Y1750000D03*
D27*
X19750000Y-2550000D03*
X20750000Y-2550000D03*
X20250000Y-2550000D03*
X17750000Y-2550000D03*
X17250000Y-2550000D03*
X18750000Y-2550000D03*
X18250000Y-2550000D03*
X19250000Y-2550000D03*
X21250000Y-2550000D03*
X22750000Y-2550000D03*
X21750000Y-2550000D03*
X22250000Y-2550000D03*
D11*
X30000000Y-30000000D03*
X30000000Y10000000D03*
D25*
X0Y1000000D03*
D26*
X3550000Y250000D03*
X3550000Y750000D03*
X3550000Y1250000D03*
X3550000Y1750000D03*
X3550000Y-750000D03*
X3550000Y-1750000D03*
X3550000Y-1250000D03*
X3550000Y-250000D03*
X3550000Y2250000D03*
X3550000Y3250000D03*
X3550000Y2750000D03*
X3550000Y3750000D03*
D27*
X750000Y4550000D03*
X-250000Y4550000D03*
X-1250000Y4550000D03*
X-750000Y4550000D03*
X250000Y4550000D03*
X-2750000Y4550000D03*
X-2250000Y4550000D03*
X-1750000Y4550000D03*
X1750000Y4550000D03*
X1250000Y4550000D03*
X2250000Y4550000D03*
X2750000Y4550000D03*
D26*
X-3550000Y-1750000D03*
X-3550000Y-750000D03*
X-3550000Y-1250000D03*
X-3550000Y2750000D03*
X-3550000Y-250000D03*
X-3550000Y250000D03*
X-3550000Y750000D03*
X-3550000Y3250000D03*
X-3550000Y3750000D03*
X-3550000Y2250000D03*
X-3550000Y1250000D03*
X-3550000Y1750000D03*
D27*
X-250000Y-2550000D03*
X750000Y-2550000D03*
X250000Y-2550000D03*
X-2250000Y-2550000D03*
X-2750000Y-2550000D03*
X-1250000Y-2550000D03*
X-1750000Y-2550000D03*
X-750000Y-2550000D03*
X1250000Y-2550000D03*
X2750000Y-2550000D03*
X1750000Y-2550000D03*
X2250000Y-2550000D03*
D13*
X-3997000Y-3159000D03*
X-3997000Y-2259000D03*
D24*
X-8330000Y880000D03*
D13*
X-450000Y5750000D03*
X-450000Y6650000D03*
D22*
X2250000Y-4300000D03*
X-750000Y-4300000D03*
X-2250000Y-4300000D03*
D23*
X4000000Y-6300000D03*
X-4000000Y-6300000D03*
D21*
X-4800000Y4900000D03*
X-6250000Y4900000D03*
X-6250000Y3750000D03*
X-4800000Y3750000D03*
D19*
X-6000000Y-2800000D03*
D17*
X450000Y5800000D03*
X2350000Y5800000D03*
X1400000Y7800000D03*
D20*
X3600000Y6850000D03*
X3600000Y5150000D03*
D19*
X6000000Y-2800000D03*
D18*
X5550000Y1150000D03*
X5550000Y200000D03*
X5550000Y-750000D03*
X7750000Y-750000D03*
X7750000Y1150000D03*
D17*
X5050000Y3100000D03*
X6950000Y3100000D03*
X6000000Y5100000D03*
D16*
X-2900000Y7175000D03*
X-2400000Y7175000D03*
X-1900000Y7175000D03*
X-1900000Y5825000D03*
X-2400000Y5825000D03*
X-2900000Y5825000D03*
D15*
X-7650000Y880000D03*
X-7010000Y880000D03*
X-6370000Y880000D03*
X-6370000Y2130000D03*
X-7010000Y2130000D03*
X-7650000Y2130000D03*
D14*
X321000Y8265000D03*
X-4200000Y-3900000D03*
X-5300000Y-4900000D03*
X4800000Y5200000D03*
X2500000Y7500000D03*
D13*
X-3600000Y7150000D03*
X-3600000Y6250000D03*
X-1200000Y5750000D03*
X-1200000Y6650000D03*
X-4500000Y5950000D03*
X-4500000Y6850000D03*
X-7300000Y3250000D03*
X-7300000Y4150000D03*
D12*
X-5300000Y2400000D03*
X-4400000Y2400000D03*
X-5310000Y680000D03*
X-4410000Y680000D03*
X-5550000Y-890000D03*
X-4650000Y-890000D03*
D13*
X4550000Y-1450000D03*
X4550000Y-550000D03*
X4550000Y1200000D03*
X4550000Y300000D03*
D12*
X4450000Y2150000D03*
X5350000Y2150000D03*
X35000Y-4384000D03*
X935000Y-4384000D03*
D10*
G36*
X6877722Y-1561513D02*
X7517513Y-921722D01*
X8015882Y-1420091D01*
X7376091Y-2059882D01*
X6877722Y-1561513D01*
X6877722Y-1561513D01*
G37*
G36*
X7514118Y-2197909D02*
X8153909Y-1558118D01*
X8652278Y-2056487D01*
X8012487Y-2696278D01*
X7514118Y-2197909D01*
X7514118Y-2197909D01*
G37*
D12*
X4205000Y-3101000D03*
X3305000Y-3101000D03*
X3305000Y-3886000D03*
X4205000Y-3886000D03*
D13*
X4950000Y-5350000D03*
X4950000Y-4450000D03*
D12*
X6662000Y1987000D03*
X7562000Y1987000D03*
X-4410000Y-90000D03*
X-5310000Y-90000D03*
D11*
X-10000000Y10000000D03*
M02*
