G04 #@! TF.FileFunction,Profile,NP*
%FSLAX46Y46*%
G04 Gerber Fmt 4.6, Leading zero omitted, Abs format (unit mm)*
G04 Created by KiCad (PCBNEW 4.0.7+dfsg1-1) date Fri Jun  1 01:11:19 2018*
%MOMM*%
%LPD*%
G01*
G04 APERTURE LIST*
%ADD10C,0.100000*%
%ADD11C,0.050000*%
G04 APERTURE END LIST*
D10*
D11*
X-15000118Y15000118D02*
X-15000118Y-34999930D01*
X-15000118Y-34999930D02*
X34999930Y-34999930D01*
X34999930Y-34999930D02*
X34999930Y15000118D01*
X34999930Y15000118D02*
X-15000118Y15000118D01*
X1999878Y10999845D02*
X17999935Y10999845D01*
X17999935Y10999845D02*
X18799886Y10199894D01*
X18799886Y10199894D02*
X18799886Y8916768D01*
X18799886Y8916768D02*
X18426485Y8858958D01*
X18426485Y8858958D02*
X18058319Y8786023D01*
X18058319Y8786023D02*
X17695717Y8698293D01*
X17695717Y8698293D02*
X17339011Y8596098D01*
X17339011Y8596098D02*
X16988528Y8479767D01*
X16988528Y8479767D02*
X16644599Y8349631D01*
X16644599Y8349631D02*
X16307555Y8206018D01*
X16307555Y8206018D02*
X15977723Y8049258D01*
X15977723Y8049258D02*
X15655435Y7879681D01*
X15655435Y7879681D02*
X15341019Y7697616D01*
X15341019Y7697616D02*
X15034806Y7503394D01*
X15034806Y7503394D02*
X14737125Y7297342D01*
X14737125Y7297342D02*
X14448307Y7079793D01*
X14448307Y7079793D02*
X14168680Y6851073D01*
X14168680Y6851073D02*
X13898574Y6611515D01*
X13898574Y6611515D02*
X13638319Y6361446D01*
X13638319Y6361446D02*
X13388246Y6101196D01*
X13388246Y6101196D02*
X13148682Y5831096D01*
X13148682Y5831096D02*
X12919959Y5551475D01*
X12919959Y5551475D02*
X12702406Y5262662D01*
X12702406Y5262662D02*
X12496353Y4964987D01*
X12496353Y4964987D02*
X12302129Y4658779D01*
X12302129Y4658779D02*
X12120064Y4344368D01*
X12120064Y4344368D02*
X11950488Y4022085D01*
X11950488Y4022085D02*
X11793731Y3692257D01*
X11793731Y3692257D02*
X11650122Y3355215D01*
X11650122Y3355215D02*
X11519991Y3011289D01*
X11519991Y3011289D02*
X11403667Y2660808D01*
X11403667Y2660808D02*
X11301481Y2304102D01*
X11301481Y2304102D02*
X11213762Y1941500D01*
X11213762Y1941500D02*
X11140840Y1573331D01*
X11140840Y1573331D02*
X11083044Y1199927D01*
X11083044Y1199927D02*
X8916768Y1199927D01*
X8916768Y1199927D02*
X8858972Y1573344D01*
X8858972Y1573344D02*
X8786051Y1941523D01*
X8786051Y1941523D02*
X8698334Y2304136D01*
X8698334Y2304136D02*
X8596150Y2660853D01*
X8596150Y2660853D02*
X8479830Y3011343D01*
X8479830Y3011343D02*
X8349703Y3355278D01*
X8349703Y3355278D02*
X8206098Y3692328D01*
X8206098Y3692328D02*
X8049346Y4022163D01*
X8049346Y4022163D02*
X7879775Y4344454D01*
X7879775Y4344454D02*
X7697716Y4658870D01*
X7697716Y4658870D02*
X7503497Y4965083D01*
X7503497Y4965083D02*
X7297449Y5262763D01*
X7297449Y5262763D02*
X7079902Y5551580D01*
X7079902Y5551580D02*
X6851184Y5831204D01*
X6851184Y5831204D02*
X6611626Y6101306D01*
X6611626Y6101306D02*
X6361557Y6361557D01*
X6361557Y6361557D02*
X6101306Y6611626D01*
X6101306Y6611626D02*
X5831204Y6851184D01*
X5831204Y6851184D02*
X5551580Y7079902D01*
X5551580Y7079902D02*
X5262763Y7297449D01*
X5262763Y7297449D02*
X4965084Y7503497D01*
X4965084Y7503497D02*
X4658871Y7697715D01*
X4658871Y7697715D02*
X4344454Y7879775D01*
X4344454Y7879775D02*
X4022163Y8049346D01*
X4022163Y8049346D02*
X3692328Y8206098D01*
X3692328Y8206098D02*
X3355279Y8349703D01*
X3355279Y8349703D02*
X3011344Y8479830D01*
X3011344Y8479830D02*
X2660853Y8596150D01*
X2660853Y8596150D02*
X2304136Y8698334D01*
X2304136Y8698334D02*
X1941523Y8786051D01*
X1941523Y8786051D02*
X1573344Y8858972D01*
X1573344Y8858972D02*
X1199927Y8916768D01*
X1199927Y8916768D02*
X1199927Y10199894D01*
X1199927Y10199894D02*
X1999878Y10999845D01*
X-1976107Y10951785D02*
X-1199927Y10194725D01*
X-1199927Y10194725D02*
X-1199927Y8916767D01*
X-1199927Y8916767D02*
X-1573344Y8858971D01*
X-1573344Y8858971D02*
X-1941523Y8786050D01*
X-1941523Y8786050D02*
X-2304136Y8698333D01*
X-2304136Y8698333D02*
X-2660853Y8596149D01*
X-2660853Y8596149D02*
X-3011344Y8479829D01*
X-3011344Y8479829D02*
X-3355279Y8349702D01*
X-3355279Y8349702D02*
X-3692328Y8206097D01*
X-3692328Y8206097D02*
X-4022163Y8049345D01*
X-4022163Y8049345D02*
X-4344454Y7879774D01*
X-4344454Y7879774D02*
X-4658871Y7697715D01*
X-4658871Y7697715D02*
X-4965084Y7503496D01*
X-4965084Y7503496D02*
X-5262763Y7297448D01*
X-5262763Y7297448D02*
X-5551580Y7079901D01*
X-5551580Y7079901D02*
X-5831204Y6851183D01*
X-5831204Y6851183D02*
X-6101306Y6611625D01*
X-6101306Y6611625D02*
X-6361557Y6361556D01*
X-6361557Y6361556D02*
X-6611626Y6101305D01*
X-6611626Y6101305D02*
X-6851184Y5831203D01*
X-6851184Y5831203D02*
X-7079902Y5551579D01*
X-7079902Y5551579D02*
X-7297449Y5262762D01*
X-7297449Y5262762D02*
X-7503497Y4965083D01*
X-7503497Y4965083D02*
X-7697716Y4658870D01*
X-7697716Y4658870D02*
X-7879775Y4344453D01*
X-7879775Y4344453D02*
X-8049346Y4022162D01*
X-8049346Y4022162D02*
X-8206098Y3692327D01*
X-8206098Y3692327D02*
X-8349703Y3355278D01*
X-8349703Y3355278D02*
X-8479830Y3011343D01*
X-8479830Y3011343D02*
X-8596150Y2660852D01*
X-8596150Y2660852D02*
X-8698334Y2304135D01*
X-8698334Y2304135D02*
X-8786051Y1941522D01*
X-8786051Y1941522D02*
X-8858972Y1573343D01*
X-8858972Y1573343D02*
X-8916768Y1199926D01*
X-8916768Y1199926D02*
X-10199894Y1199926D01*
X-10199894Y1199926D02*
X-10954887Y1954918D01*
X-10954887Y1954918D02*
X-10903269Y2398859D01*
X-10903269Y2398859D02*
X-10832629Y2836543D01*
X-10832629Y2836543D02*
X-10743390Y3267547D01*
X-10743390Y3267547D02*
X-10635977Y3691446D01*
X-10635977Y3691446D02*
X-10510818Y4107814D01*
X-10510818Y4107814D02*
X-10368335Y4516228D01*
X-10368335Y4516228D02*
X-10208954Y4916263D01*
X-10208954Y4916263D02*
X-10033101Y5307494D01*
X-10033101Y5307494D02*
X-9841200Y5689497D01*
X-9841200Y5689497D02*
X-9633677Y6061846D01*
X-9633677Y6061846D02*
X-9410957Y6424118D01*
X-9410957Y6424118D02*
X-9173464Y6775887D01*
X-9173464Y6775887D02*
X-8921624Y7116729D01*
X-8921624Y7116729D02*
X-8655863Y7446219D01*
X-8655863Y7446219D02*
X-8376604Y7763933D01*
X-8376604Y7763933D02*
X-8084273Y8069445D01*
X-8084273Y8069445D02*
X-7779296Y8362332D01*
X-7779296Y8362332D02*
X-7462098Y8642169D01*
X-7462098Y8642169D02*
X-7133102Y8908530D01*
X-7133102Y8908530D02*
X-6792736Y9160992D01*
X-6792736Y9160992D02*
X-6441423Y9399130D01*
X-6441423Y9399130D02*
X-6079589Y9622518D01*
X-6079589Y9622518D02*
X-5707659Y9830733D01*
X-5707659Y9830733D02*
X-5326058Y10023350D01*
X-5326058Y10023350D02*
X-4935211Y10199943D01*
X-4935211Y10199943D02*
X-4535543Y10360089D01*
X-4535543Y10360089D02*
X-4127480Y10503363D01*
X-4127480Y10503363D02*
X-3711446Y10629340D01*
X-3711446Y10629340D02*
X-3287866Y10737595D01*
X-3287866Y10737595D02*
X-2857167Y10827704D01*
X-2857167Y10827704D02*
X-2419772Y10899242D01*
X-2419772Y10899242D02*
X-1976107Y10951785D01*
X-1976107Y10951785D02*
X-1976107Y10951785D01*
X21976436Y10951785D02*
X22420070Y10899223D01*
X22420070Y10899223D02*
X22857436Y10827666D01*
X22857436Y10827666D02*
X23288110Y10737538D01*
X23288110Y10737538D02*
X23711666Y10629264D01*
X23711666Y10629264D02*
X24127678Y10503270D01*
X24127678Y10503270D02*
X24535723Y10359979D01*
X24535723Y10359979D02*
X24935374Y10199817D01*
X24935374Y10199817D02*
X25326207Y10023208D01*
X25326207Y10023208D02*
X25707796Y9830577D01*
X25707796Y9830577D02*
X26079716Y9622349D01*
X26079716Y9622349D02*
X26441543Y9398948D01*
X26441543Y9398948D02*
X26792850Y9160799D01*
X26792850Y9160799D02*
X27133212Y8908328D01*
X27133212Y8908328D02*
X27462206Y8641958D01*
X27462206Y8641958D02*
X27779404Y8362115D01*
X27779404Y8362115D02*
X28084383Y8069223D01*
X28084383Y8069223D02*
X28376717Y7763707D01*
X28376717Y7763707D02*
X28655981Y7445992D01*
X28655981Y7445992D02*
X28921749Y7116502D01*
X28921749Y7116502D02*
X29173597Y6775662D01*
X29173597Y6775662D02*
X29411099Y6423898D01*
X29411099Y6423898D02*
X29633831Y6061633D01*
X29633831Y6061633D02*
X29841366Y5689293D01*
X29841366Y5689293D02*
X30033281Y5307302D01*
X30033281Y5307302D02*
X30209149Y4916085D01*
X30209149Y4916085D02*
X30368545Y4516067D01*
X30368545Y4516067D02*
X30511045Y4107672D01*
X30511045Y4107672D02*
X30636224Y3691326D01*
X30636224Y3691326D02*
X30743655Y3267453D01*
X30743655Y3267453D02*
X30832914Y2836477D01*
X30832914Y2836477D02*
X30903576Y2398824D01*
X30903576Y2398824D02*
X30955215Y1954918D01*
X30955215Y1954918D02*
X30200224Y1199926D01*
X30200224Y1199926D02*
X28917098Y1199926D01*
X28917098Y1199926D02*
X28859304Y1573328D01*
X28859304Y1573328D02*
X28786383Y1941491D01*
X28786383Y1941491D02*
X28698665Y2304086D01*
X28698665Y2304086D02*
X28596480Y2660782D01*
X28596480Y2660782D02*
X28480157Y3011250D01*
X28480157Y3011250D02*
X28350026Y3355162D01*
X28350026Y3355162D02*
X28206416Y3692187D01*
X28206416Y3692187D02*
X28049659Y4021996D01*
X28049659Y4021996D02*
X27880082Y4344260D01*
X27880082Y4344260D02*
X27698017Y4658649D01*
X27698017Y4658649D02*
X27503792Y4964834D01*
X27503792Y4964834D02*
X27297738Y5262486D01*
X27297738Y5262486D02*
X27080184Y5551276D01*
X27080184Y5551276D02*
X26851460Y5830873D01*
X26851460Y5830873D02*
X26611896Y6100948D01*
X26611896Y6100948D02*
X26361821Y6361173D01*
X26361821Y6361173D02*
X26101566Y6611217D01*
X26101566Y6611217D02*
X25831459Y6850752D01*
X25831459Y6850752D02*
X25551831Y7079447D01*
X25551831Y7079447D02*
X25263012Y7296974D01*
X25263012Y7296974D02*
X24965330Y7503003D01*
X24965330Y7503003D02*
X24659117Y7697204D01*
X24659117Y7697204D02*
X24344701Y7879249D01*
X24344701Y7879249D02*
X24022412Y8048808D01*
X24022412Y8048808D02*
X23692580Y8205551D01*
X23692580Y8205551D02*
X23355536Y8349149D01*
X23355536Y8349149D02*
X23011608Y8479273D01*
X23011608Y8479273D02*
X22661126Y8595594D01*
X22661126Y8595594D02*
X22304420Y8697781D01*
X22304420Y8697781D02*
X21941820Y8785506D01*
X21941820Y8785506D02*
X21573655Y8858439D01*
X21573655Y8858439D02*
X21200256Y8916251D01*
X21200256Y8916251D02*
X21200256Y10195242D01*
X21200256Y10195242D02*
X21976436Y10951785D01*
X-10199894Y-1199928D02*
X-8909534Y-1199928D01*
X-8909534Y-1199928D02*
X-8869007Y-1469758D01*
X-8869007Y-1469758D02*
X-8820509Y-1737472D01*
X-8820509Y-1737472D02*
X-8764132Y-2002910D01*
X-8764132Y-2002910D02*
X-8699969Y-2265914D01*
X-8699969Y-2265914D02*
X-8628112Y-2526326D01*
X-8628112Y-2526326D02*
X-8548654Y-2783989D01*
X-8548654Y-2783989D02*
X-8461687Y-3038744D01*
X-8461687Y-3038744D02*
X-8367304Y-3290433D01*
X-8367304Y-3290433D02*
X-8265598Y-3538897D01*
X-8265598Y-3538897D02*
X-8156661Y-3783979D01*
X-8156661Y-3783979D02*
X-8040586Y-4025521D01*
X-8040586Y-4025521D02*
X-7917465Y-4263364D01*
X-7917465Y-4263364D02*
X-7787391Y-4497351D01*
X-7787391Y-4497351D02*
X-7650457Y-4727322D01*
X-7650457Y-4727322D02*
X-7506756Y-4953121D01*
X-7506756Y-4953121D02*
X-7356379Y-5174589D01*
X-7356379Y-5174589D02*
X-7199420Y-5391568D01*
X-7199420Y-5391568D02*
X-7035970Y-5603899D01*
X-7035970Y-5603899D02*
X-6866124Y-5811425D01*
X-6866124Y-5811425D02*
X-6689972Y-6013988D01*
X-6689972Y-6013988D02*
X-6507609Y-6211428D01*
X-6507609Y-6211428D02*
X-6319126Y-6403590D01*
X-6319126Y-6403590D02*
X-6124616Y-6590313D01*
X-6124616Y-6590313D02*
X-5924171Y-6771440D01*
X-5924171Y-6771440D02*
X-5717886Y-6946813D01*
X-5717886Y-6946813D02*
X-5505850Y-7116274D01*
X-5505850Y-7116274D02*
X-5288159Y-7279665D01*
X-5288159Y-7279665D02*
X-5064903Y-7436827D01*
X-5064903Y-7436827D02*
X-4836177Y-7587603D01*
X-4836177Y-7587603D02*
X-4602071Y-7731834D01*
X-4602071Y-7731834D02*
X-4362680Y-7869362D01*
X-4362680Y-7869362D02*
X-4118095Y-8000029D01*
X-4118095Y-8000029D02*
X-3500045Y-8000029D01*
X-3500045Y-8000029D02*
X-3500045Y-5099947D01*
X-3500045Y-5099947D02*
X-3300057Y-4899959D01*
X-3300057Y-4899959D02*
X-1199927Y-4899959D01*
X-1199927Y-4899959D02*
X-1199927Y-11083044D01*
X-1199927Y-11083044D02*
X-1573331Y-11140840D01*
X-1573331Y-11140840D02*
X-1941500Y-11213762D01*
X-1941500Y-11213762D02*
X-2304102Y-11301481D01*
X-2304102Y-11301481D02*
X-2660808Y-11403667D01*
X-2660808Y-11403667D02*
X-3011289Y-11519991D01*
X-3011289Y-11519991D02*
X-3355215Y-11650122D01*
X-3355215Y-11650122D02*
X-3692257Y-11793731D01*
X-3692257Y-11793731D02*
X-4022085Y-11950488D01*
X-4022085Y-11950488D02*
X-4344368Y-12120064D01*
X-4344368Y-12120064D02*
X-4658779Y-12302129D01*
X-4658779Y-12302129D02*
X-4964987Y-12496353D01*
X-4964987Y-12496353D02*
X-5262662Y-12702406D01*
X-5262662Y-12702406D02*
X-5551475Y-12919959D01*
X-5551475Y-12919959D02*
X-5831096Y-13148682D01*
X-5831096Y-13148682D02*
X-6101196Y-13388246D01*
X-6101196Y-13388246D02*
X-6361446Y-13638319D01*
X-6361446Y-13638319D02*
X-6611515Y-13898574D01*
X-6611515Y-13898574D02*
X-6851073Y-14168680D01*
X-6851073Y-14168680D02*
X-7079793Y-14448307D01*
X-7079793Y-14448307D02*
X-7297342Y-14737125D01*
X-7297342Y-14737125D02*
X-7503394Y-15034806D01*
X-7503394Y-15034806D02*
X-7697616Y-15341019D01*
X-7697616Y-15341019D02*
X-7879681Y-15655435D01*
X-7879681Y-15655435D02*
X-8049258Y-15977723D01*
X-8049258Y-15977723D02*
X-8206018Y-16307555D01*
X-8206018Y-16307555D02*
X-8349631Y-16644599D01*
X-8349631Y-16644599D02*
X-8479767Y-16988528D01*
X-8479767Y-16988528D02*
X-8596098Y-17339011D01*
X-8596098Y-17339011D02*
X-8698293Y-17695717D01*
X-8698293Y-17695717D02*
X-8786023Y-18058319D01*
X-8786023Y-18058319D02*
X-8858958Y-18426485D01*
X-8858958Y-18426485D02*
X-8916768Y-18799886D01*
X-8916768Y-18799886D02*
X-10199894Y-18799886D01*
X-10199894Y-18799886D02*
X-10999845Y-17999935D01*
X-10999845Y-17999935D02*
X-10999845Y-1999878D01*
X-10999845Y-1999878D02*
X-10199894Y-1199928D01*
X8908500Y-1199928D02*
X11090279Y-1199928D01*
X11090279Y-1199928D02*
X11130805Y-1469758D01*
X11130805Y-1469758D02*
X11179304Y-1737472D01*
X11179304Y-1737472D02*
X11235681Y-2002910D01*
X11235681Y-2002910D02*
X11299844Y-2265914D01*
X11299844Y-2265914D02*
X11371701Y-2526326D01*
X11371701Y-2526326D02*
X11451159Y-2783989D01*
X11451159Y-2783989D02*
X11538126Y-3038744D01*
X11538126Y-3038744D02*
X11632509Y-3290433D01*
X11632509Y-3290433D02*
X11734215Y-3538897D01*
X11734215Y-3538897D02*
X11843152Y-3783979D01*
X11843152Y-3783979D02*
X11959227Y-4025521D01*
X11959227Y-4025521D02*
X12082348Y-4263364D01*
X12082348Y-4263364D02*
X12212421Y-4497351D01*
X12212421Y-4497351D02*
X12349355Y-4727322D01*
X12349355Y-4727322D02*
X12493057Y-4953121D01*
X12493057Y-4953121D02*
X12643434Y-5174589D01*
X12643434Y-5174589D02*
X12800393Y-5391568D01*
X12800393Y-5391568D02*
X12963842Y-5603899D01*
X12963842Y-5603899D02*
X13133689Y-5811425D01*
X13133689Y-5811425D02*
X13309840Y-6013988D01*
X13309840Y-6013988D02*
X13492204Y-6211428D01*
X13492204Y-6211428D02*
X13680687Y-6403590D01*
X13680687Y-6403590D02*
X13875197Y-6590313D01*
X13875197Y-6590313D02*
X14075641Y-6771440D01*
X14075641Y-6771440D02*
X14281927Y-6946813D01*
X14281927Y-6946813D02*
X14493962Y-7116274D01*
X14493962Y-7116274D02*
X14711654Y-7279665D01*
X14711654Y-7279665D02*
X14934909Y-7436827D01*
X14934909Y-7436827D02*
X15163636Y-7587603D01*
X15163636Y-7587603D02*
X15397741Y-7731834D01*
X15397741Y-7731834D02*
X15637133Y-7869362D01*
X15637133Y-7869362D02*
X15881718Y-8000029D01*
X15881718Y-8000029D02*
X16499768Y-8000029D01*
X16499768Y-8000029D02*
X16499768Y-5099947D01*
X16499768Y-5099947D02*
X16699756Y-4899959D01*
X16699756Y-4899959D02*
X18799886Y-4899959D01*
X18799886Y-4899959D02*
X18799886Y-11083044D01*
X18799886Y-11083044D02*
X18426497Y-11140854D01*
X18426497Y-11140854D02*
X18058342Y-11213790D01*
X18058342Y-11213790D02*
X17695752Y-11301522D01*
X17695752Y-11301522D02*
X17339056Y-11403720D01*
X17339056Y-11403720D02*
X16988583Y-11520054D01*
X16988583Y-11520054D02*
X16644663Y-11650194D01*
X16644663Y-11650194D02*
X16307627Y-11793812D01*
X16307627Y-11793812D02*
X15977803Y-11950576D01*
X15977803Y-11950576D02*
X15655521Y-12120159D01*
X15655521Y-12120159D02*
X15341112Y-12302229D01*
X15341112Y-12302229D02*
X15034904Y-12496457D01*
X15034904Y-12496457D02*
X14737228Y-12702514D01*
X14737228Y-12702514D02*
X14448413Y-12920069D01*
X14448413Y-12920069D02*
X14168788Y-13148793D01*
X14168788Y-13148793D02*
X13898685Y-13388357D01*
X13898685Y-13388357D02*
X13638431Y-13638431D01*
X13638431Y-13638431D02*
X13388358Y-13898684D01*
X13388358Y-13898684D02*
X13148794Y-14168788D01*
X13148794Y-14168788D02*
X12920069Y-14448412D01*
X12920069Y-14448412D02*
X12702514Y-14737227D01*
X12702514Y-14737227D02*
X12496457Y-15034903D01*
X12496457Y-15034903D02*
X12302229Y-15341111D01*
X12302229Y-15341111D02*
X12120159Y-15655521D01*
X12120159Y-15655521D02*
X11950576Y-15977802D01*
X11950576Y-15977802D02*
X11793812Y-16307626D01*
X11793812Y-16307626D02*
X11650194Y-16644663D01*
X11650194Y-16644663D02*
X11520054Y-16988583D01*
X11520054Y-16988583D02*
X11403720Y-17339055D01*
X11403720Y-17339055D02*
X11301522Y-17695752D01*
X11301522Y-17695752D02*
X11213790Y-18058342D01*
X11213790Y-18058342D02*
X11140854Y-18426497D01*
X11140854Y-18426497D02*
X11083044Y-18799886D01*
X11083044Y-18799886D02*
X8916768Y-18799886D01*
X8916768Y-18799886D02*
X8858958Y-18426485D01*
X8858958Y-18426485D02*
X8786023Y-18058319D01*
X8786023Y-18058319D02*
X8698293Y-17695717D01*
X8698293Y-17695717D02*
X8596098Y-17339011D01*
X8596098Y-17339011D02*
X8479767Y-16988528D01*
X8479767Y-16988528D02*
X8349631Y-16644599D01*
X8349631Y-16644599D02*
X8206018Y-16307555D01*
X8206018Y-16307555D02*
X8049258Y-15977723D01*
X8049258Y-15977723D02*
X7879681Y-15655435D01*
X7879681Y-15655435D02*
X7697616Y-15341019D01*
X7697616Y-15341019D02*
X7503394Y-15034806D01*
X7503394Y-15034806D02*
X7297342Y-14737125D01*
X7297342Y-14737125D02*
X7079793Y-14448307D01*
X7079793Y-14448307D02*
X6851073Y-14168680D01*
X6851073Y-14168680D02*
X6611515Y-13898574D01*
X6611515Y-13898574D02*
X6361446Y-13638319D01*
X6361446Y-13638319D02*
X6101196Y-13388246D01*
X6101196Y-13388246D02*
X5831096Y-13148682D01*
X5831096Y-13148682D02*
X5551475Y-12919959D01*
X5551475Y-12919959D02*
X5262662Y-12702406D01*
X5262662Y-12702406D02*
X4964987Y-12496353D01*
X4964987Y-12496353D02*
X4658779Y-12302129D01*
X4658779Y-12302129D02*
X4344368Y-12120064D01*
X4344368Y-12120064D02*
X4022085Y-11950488D01*
X4022085Y-11950488D02*
X3692257Y-11793731D01*
X3692257Y-11793731D02*
X3355215Y-11650122D01*
X3355215Y-11650122D02*
X3011289Y-11519991D01*
X3011289Y-11519991D02*
X2660808Y-11403667D01*
X2660808Y-11403667D02*
X2304102Y-11301481D01*
X2304102Y-11301481D02*
X1941500Y-11213762D01*
X1941500Y-11213762D02*
X1573331Y-11140840D01*
X1573331Y-11140840D02*
X1199927Y-11083044D01*
X1199927Y-11083044D02*
X1199927Y-4899959D01*
X1199927Y-4899959D02*
X3300057Y-4899959D01*
X3300057Y-4899959D02*
X3500045Y-5099947D01*
X3500045Y-5099947D02*
X3500045Y-8000028D01*
X3500045Y-8000028D02*
X4082955Y-8000028D01*
X4082955Y-8000028D02*
X4136355Y-7972424D01*
X4136355Y-7972424D02*
X4189561Y-7944469D01*
X4189561Y-7944469D02*
X4242571Y-7916164D01*
X4242571Y-7916164D02*
X4295383Y-7887509D01*
X4295383Y-7887509D02*
X4347995Y-7858506D01*
X4347995Y-7858506D02*
X4400407Y-7829157D01*
X4400407Y-7829157D02*
X4452615Y-7799461D01*
X4452615Y-7799461D02*
X4504619Y-7769421D01*
X4504619Y-7769421D02*
X4556416Y-7739037D01*
X4556416Y-7739037D02*
X4608006Y-7708311D01*
X4608006Y-7708311D02*
X4659386Y-7677243D01*
X4659386Y-7677243D02*
X4710555Y-7645835D01*
X4710555Y-7645835D02*
X4761511Y-7614087D01*
X4761511Y-7614087D02*
X4812253Y-7582002D01*
X4812253Y-7582002D02*
X4862778Y-7549579D01*
X4862778Y-7549579D02*
X4913085Y-7516821D01*
X4913085Y-7516821D02*
X4963173Y-7483728D01*
X4963173Y-7483728D02*
X5013039Y-7450301D01*
X5013039Y-7450301D02*
X5062683Y-7416541D01*
X5062683Y-7416541D02*
X5112101Y-7382450D01*
X5112101Y-7382450D02*
X5161294Y-7348028D01*
X5161294Y-7348028D02*
X5210258Y-7313277D01*
X5210258Y-7313277D02*
X5258993Y-7278198D01*
X5258993Y-7278198D02*
X5307496Y-7242792D01*
X5307496Y-7242792D02*
X5355766Y-7207059D01*
X5355766Y-7207059D02*
X5403802Y-7171002D01*
X5403802Y-7171002D02*
X5451601Y-7134621D01*
X5451601Y-7134621D02*
X5499162Y-7097917D01*
X5499162Y-7097917D02*
X5546483Y-7060892D01*
X5546483Y-7060892D02*
X5593563Y-7023546D01*
X5593563Y-7023546D02*
X5640399Y-6985880D01*
X5640399Y-6985880D02*
X5686991Y-6947896D01*
X5686991Y-6947896D02*
X5663536Y-6916029D01*
X5663536Y-6916029D02*
X5641571Y-6883268D01*
X5641571Y-6883268D02*
X5621115Y-6849665D01*
X5621115Y-6849665D02*
X5602185Y-6815273D01*
X5602185Y-6815273D02*
X5584801Y-6780146D01*
X5584801Y-6780146D02*
X5568980Y-6744337D01*
X5568980Y-6744337D02*
X5554740Y-6707899D01*
X5554740Y-6707899D02*
X5542099Y-6670885D01*
X5542099Y-6670885D02*
X5531076Y-6633348D01*
X5531076Y-6633348D02*
X5521689Y-6595342D01*
X5521689Y-6595342D02*
X5513955Y-6556919D01*
X5513955Y-6556919D02*
X5507894Y-6518133D01*
X5507894Y-6518133D02*
X5503522Y-6479037D01*
X5503522Y-6479037D02*
X5500859Y-6439683D01*
X5500859Y-6439683D02*
X5499922Y-6400126D01*
X5499922Y-6400126D02*
X5501084Y-6353797D01*
X5501084Y-6353797D02*
X5504551Y-6308077D01*
X5504551Y-6308077D02*
X5510268Y-6263020D01*
X5510268Y-6263020D02*
X5518177Y-6218686D01*
X5518177Y-6218686D02*
X5528223Y-6175129D01*
X5528223Y-6175129D02*
X5540348Y-6132406D01*
X5540348Y-6132406D02*
X5554496Y-6090575D01*
X5554496Y-6090575D02*
X5570611Y-6049691D01*
X5570611Y-6049691D02*
X5588635Y-6009811D01*
X5588635Y-6009811D02*
X5608513Y-5970992D01*
X5608513Y-5970992D02*
X5630187Y-5933291D01*
X5630187Y-5933291D02*
X5653602Y-5896764D01*
X5653602Y-5896764D02*
X5678699Y-5861467D01*
X5678699Y-5861467D02*
X5705424Y-5827457D01*
X5705424Y-5827457D02*
X5733718Y-5794792D01*
X5733718Y-5794792D02*
X5763526Y-5763526D01*
X5763526Y-5763526D02*
X5794792Y-5733718D01*
X5794792Y-5733718D02*
X5827457Y-5705424D01*
X5827457Y-5705424D02*
X5861467Y-5678699D01*
X5861467Y-5678699D02*
X5896764Y-5653602D01*
X5896764Y-5653602D02*
X5933291Y-5630187D01*
X5933291Y-5630187D02*
X5970992Y-5608513D01*
X5970992Y-5608513D02*
X6009811Y-5588635D01*
X6009811Y-5588635D02*
X6049691Y-5570611D01*
X6049691Y-5570611D02*
X6090575Y-5554496D01*
X6090575Y-5554496D02*
X6132406Y-5540348D01*
X6132406Y-5540348D02*
X6175129Y-5528223D01*
X6175129Y-5528223D02*
X6218686Y-5518177D01*
X6218686Y-5518177D02*
X6263020Y-5510268D01*
X6263020Y-5510268D02*
X6308077Y-5504551D01*
X6308077Y-5504551D02*
X6353797Y-5501084D01*
X6353797Y-5501084D02*
X6400126Y-5499922D01*
X6400126Y-5499922D02*
X6439907Y-5500875D01*
X6439907Y-5500875D02*
X6479481Y-5503574D01*
X6479481Y-5503574D02*
X6518793Y-5507999D01*
X6518793Y-5507999D02*
X6557789Y-5514132D01*
X6557789Y-5514132D02*
X6596416Y-5521955D01*
X6596416Y-5521955D02*
X6634619Y-5531450D01*
X6634619Y-5531450D02*
X6672345Y-5542597D01*
X6672345Y-5542597D02*
X6709539Y-5555379D01*
X6709539Y-5555379D02*
X6746148Y-5569776D01*
X6746148Y-5569776D02*
X6782117Y-5585771D01*
X6782117Y-5585771D02*
X6817393Y-5603345D01*
X6817393Y-5603345D02*
X6851921Y-5622479D01*
X6851921Y-5622479D02*
X6885647Y-5643155D01*
X6885647Y-5643155D02*
X6918518Y-5665354D01*
X6918518Y-5665354D02*
X6950480Y-5689058D01*
X6950480Y-5689058D02*
X7048922Y-5567218D01*
X7048922Y-5567218D02*
X7145052Y-5443856D01*
X7145052Y-5443856D02*
X7238862Y-5319007D01*
X7238862Y-5319007D02*
X7330343Y-5192703D01*
X7330343Y-5192703D02*
X7419484Y-5064978D01*
X7419484Y-5064978D02*
X7506277Y-4935865D01*
X7506277Y-4935865D02*
X7590713Y-4805396D01*
X7590713Y-4805396D02*
X7672782Y-4673605D01*
X7672782Y-4673605D02*
X7752476Y-4540524D01*
X7752476Y-4540524D02*
X7829784Y-4406188D01*
X7829784Y-4406188D02*
X7904698Y-4270628D01*
X7904698Y-4270628D02*
X7977209Y-4133879D01*
X7977209Y-4133879D02*
X8047307Y-3995973D01*
X8047307Y-3995973D02*
X8114983Y-3856942D01*
X8114983Y-3856942D02*
X8180228Y-3716821D01*
X8180228Y-3716821D02*
X8243033Y-3575643D01*
X8243033Y-3575643D02*
X8303388Y-3433440D01*
X8303388Y-3433440D02*
X8361284Y-3290245D01*
X8361284Y-3290245D02*
X8416713Y-3146092D01*
X8416713Y-3146092D02*
X8469664Y-3001013D01*
X8469664Y-3001013D02*
X8520129Y-2855042D01*
X8520129Y-2855042D02*
X8568098Y-2708212D01*
X8568098Y-2708212D02*
X8613562Y-2560556D01*
X8613562Y-2560556D02*
X8656512Y-2412106D01*
X8656512Y-2412106D02*
X8696939Y-2262897D01*
X8696939Y-2262897D02*
X8734833Y-2112960D01*
X8734833Y-2112960D02*
X8770186Y-1962330D01*
X8770186Y-1962330D02*
X8802988Y-1811039D01*
X8802988Y-1811039D02*
X8833229Y-1659120D01*
X8833229Y-1659120D02*
X8860901Y-1506606D01*
X8860901Y-1506606D02*
X8885994Y-1353531D01*
X8885994Y-1353531D02*
X8908500Y-1199928D01*
X8908500Y-1199928D02*
X8908500Y-1199928D01*
X28908314Y-1199928D02*
X30200224Y-1199928D01*
X30200224Y-1199928D02*
X31000176Y-1999879D01*
X31000176Y-1999879D02*
X31000176Y-17999935D01*
X31000176Y-17999935D02*
X30200224Y-18799886D01*
X30200224Y-18799886D02*
X28916582Y-18799886D01*
X28916582Y-18799886D02*
X28858774Y-18426502D01*
X28858774Y-18426502D02*
X28785844Y-18058354D01*
X28785844Y-18058354D02*
X28698120Y-17695773D01*
X28698120Y-17695773D02*
X28595931Y-17339089D01*
X28595931Y-17339089D02*
X28479609Y-16988630D01*
X28479609Y-16988630D02*
X28349481Y-16644726D01*
X28349481Y-16644726D02*
X28205878Y-16307707D01*
X28205878Y-16307707D02*
X28049130Y-15977902D01*
X28049130Y-15977902D02*
X27879565Y-15655640D01*
X27879565Y-15655640D02*
X27697513Y-15341252D01*
X27697513Y-15341252D02*
X27503304Y-15035067D01*
X27503304Y-15035067D02*
X27297268Y-14737413D01*
X27297268Y-14737413D02*
X27079734Y-14448622D01*
X27079734Y-14448622D02*
X26851031Y-14169021D01*
X26851031Y-14169021D02*
X26611489Y-13898942D01*
X26611489Y-13898942D02*
X26361438Y-13638712D01*
X26361438Y-13638712D02*
X26101207Y-13388663D01*
X26101207Y-13388663D02*
X25831126Y-13149123D01*
X25831126Y-13149123D02*
X25551524Y-12920421D01*
X25551524Y-12920421D02*
X25262730Y-12702888D01*
X25262730Y-12702888D02*
X24965076Y-12496853D01*
X24965076Y-12496853D02*
X24658889Y-12302645D01*
X24658889Y-12302645D02*
X24344499Y-12120594D01*
X24344499Y-12120594D02*
X24022237Y-11951029D01*
X24022237Y-11951029D02*
X23692431Y-11794280D01*
X23692431Y-11794280D02*
X23355411Y-11650676D01*
X23355411Y-11650676D02*
X23011507Y-11520548D01*
X23011507Y-11520548D02*
X22661048Y-11404224D01*
X22661048Y-11404224D02*
X22304364Y-11302033D01*
X22304364Y-11302033D02*
X21941784Y-11214306D01*
X21941784Y-11214306D02*
X21573638Y-11141372D01*
X21573638Y-11141372D02*
X21200256Y-11083561D01*
X21200256Y-11083561D02*
X21200256Y-4899959D01*
X21200256Y-4899959D02*
X23299869Y-4899959D01*
X23299869Y-4899959D02*
X23499857Y-5099947D01*
X23499857Y-5099947D02*
X23499857Y-8000028D01*
X23499857Y-8000028D02*
X24082767Y-8000028D01*
X24082767Y-8000028D02*
X24136167Y-7972424D01*
X24136167Y-7972424D02*
X24189373Y-7944469D01*
X24189373Y-7944469D02*
X24242383Y-7916164D01*
X24242383Y-7916164D02*
X24295195Y-7887509D01*
X24295195Y-7887509D02*
X24347807Y-7858506D01*
X24347807Y-7858506D02*
X24400219Y-7829157D01*
X24400219Y-7829157D02*
X24452427Y-7799461D01*
X24452427Y-7799461D02*
X24504431Y-7769421D01*
X24504431Y-7769421D02*
X24556229Y-7739037D01*
X24556229Y-7739037D02*
X24607818Y-7708311D01*
X24607818Y-7708311D02*
X24659199Y-7677243D01*
X24659199Y-7677243D02*
X24710368Y-7645835D01*
X24710368Y-7645835D02*
X24761324Y-7614087D01*
X24761324Y-7614087D02*
X24812065Y-7582002D01*
X24812065Y-7582002D02*
X24862590Y-7549579D01*
X24862590Y-7549579D02*
X24912898Y-7516821D01*
X24912898Y-7516821D02*
X24962985Y-7483728D01*
X24962985Y-7483728D02*
X25012852Y-7450301D01*
X25012852Y-7450301D02*
X25062495Y-7416541D01*
X25062495Y-7416541D02*
X25111914Y-7382450D01*
X25111914Y-7382450D02*
X25161106Y-7348028D01*
X25161106Y-7348028D02*
X25210070Y-7313277D01*
X25210070Y-7313277D02*
X25258805Y-7278198D01*
X25258805Y-7278198D02*
X25307308Y-7242792D01*
X25307308Y-7242792D02*
X25355579Y-7207059D01*
X25355579Y-7207059D02*
X25403614Y-7171002D01*
X25403614Y-7171002D02*
X25451413Y-7134621D01*
X25451413Y-7134621D02*
X25498974Y-7097917D01*
X25498974Y-7097917D02*
X25546296Y-7060892D01*
X25546296Y-7060892D02*
X25593375Y-7023546D01*
X25593375Y-7023546D02*
X25640212Y-6985880D01*
X25640212Y-6985880D02*
X25686804Y-6947896D01*
X25686804Y-6947896D02*
X25663349Y-6916029D01*
X25663349Y-6916029D02*
X25641384Y-6883268D01*
X25641384Y-6883268D02*
X25620928Y-6849665D01*
X25620928Y-6849665D02*
X25601998Y-6815273D01*
X25601998Y-6815273D02*
X25584614Y-6780146D01*
X25584614Y-6780146D02*
X25568792Y-6744337D01*
X25568792Y-6744337D02*
X25554552Y-6707899D01*
X25554552Y-6707899D02*
X25541912Y-6670885D01*
X25541912Y-6670885D02*
X25530889Y-6633348D01*
X25530889Y-6633348D02*
X25521501Y-6595342D01*
X25521501Y-6595342D02*
X25513768Y-6556919D01*
X25513768Y-6556919D02*
X25507706Y-6518133D01*
X25507706Y-6518133D02*
X25503335Y-6479037D01*
X25503335Y-6479037D02*
X25500672Y-6439683D01*
X25500672Y-6439683D02*
X25499735Y-6400126D01*
X25499735Y-6400126D02*
X25500896Y-6353797D01*
X25500896Y-6353797D02*
X25504364Y-6308077D01*
X25504364Y-6308077D02*
X25510080Y-6263020D01*
X25510080Y-6263020D02*
X25517990Y-6218686D01*
X25517990Y-6218686D02*
X25528035Y-6175129D01*
X25528035Y-6175129D02*
X25540160Y-6132406D01*
X25540160Y-6132406D02*
X25554309Y-6090575D01*
X25554309Y-6090575D02*
X25570423Y-6049691D01*
X25570423Y-6049691D02*
X25588448Y-6009811D01*
X25588448Y-6009811D02*
X25608325Y-5970992D01*
X25608325Y-5970992D02*
X25630000Y-5933291D01*
X25630000Y-5933291D02*
X25653414Y-5896764D01*
X25653414Y-5896764D02*
X25678512Y-5861467D01*
X25678512Y-5861467D02*
X25705236Y-5827457D01*
X25705236Y-5827457D02*
X25733531Y-5794792D01*
X25733531Y-5794792D02*
X25763339Y-5763526D01*
X25763339Y-5763526D02*
X25794604Y-5733718D01*
X25794604Y-5733718D02*
X25827270Y-5705424D01*
X25827270Y-5705424D02*
X25861280Y-5678699D01*
X25861280Y-5678699D02*
X25896576Y-5653602D01*
X25896576Y-5653602D02*
X25933104Y-5630187D01*
X25933104Y-5630187D02*
X25970805Y-5608513D01*
X25970805Y-5608513D02*
X26009624Y-5588635D01*
X26009624Y-5588635D02*
X26049504Y-5570611D01*
X26049504Y-5570611D02*
X26090388Y-5554496D01*
X26090388Y-5554496D02*
X26132219Y-5540348D01*
X26132219Y-5540348D02*
X26174942Y-5528223D01*
X26174942Y-5528223D02*
X26218499Y-5518177D01*
X26218499Y-5518177D02*
X26262833Y-5510268D01*
X26262833Y-5510268D02*
X26307890Y-5504551D01*
X26307890Y-5504551D02*
X26353610Y-5501084D01*
X26353610Y-5501084D02*
X26399939Y-5499922D01*
X26399939Y-5499922D02*
X26439720Y-5500875D01*
X26439720Y-5500875D02*
X26479294Y-5503574D01*
X26479294Y-5503574D02*
X26518606Y-5507999D01*
X26518606Y-5507999D02*
X26557602Y-5514132D01*
X26557602Y-5514132D02*
X26596229Y-5521955D01*
X26596229Y-5521955D02*
X26634432Y-5531450D01*
X26634432Y-5531450D02*
X26672157Y-5542597D01*
X26672157Y-5542597D02*
X26709351Y-5555378D01*
X26709351Y-5555378D02*
X26745960Y-5569776D01*
X26745960Y-5569776D02*
X26781929Y-5585771D01*
X26781929Y-5585771D02*
X26817205Y-5603345D01*
X26817205Y-5603345D02*
X26851733Y-5622479D01*
X26851733Y-5622479D02*
X26885460Y-5643155D01*
X26885460Y-5643155D02*
X26918332Y-5665354D01*
X26918332Y-5665354D02*
X26950294Y-5689058D01*
X26950294Y-5689058D02*
X27048735Y-5567218D01*
X27048735Y-5567218D02*
X27144864Y-5443856D01*
X27144864Y-5443856D02*
X27238674Y-5319007D01*
X27238674Y-5319007D02*
X27330153Y-5192703D01*
X27330153Y-5192703D02*
X27419294Y-5064978D01*
X27419294Y-5064978D02*
X27506087Y-4935865D01*
X27506087Y-4935865D02*
X27590522Y-4805396D01*
X27590522Y-4805396D02*
X27672591Y-4673605D01*
X27672591Y-4673605D02*
X27752284Y-4540524D01*
X27752284Y-4540524D02*
X27829593Y-4406188D01*
X27829593Y-4406188D02*
X27904507Y-4270628D01*
X27904507Y-4270628D02*
X27977017Y-4133879D01*
X27977017Y-4133879D02*
X28047116Y-3995973D01*
X28047116Y-3995973D02*
X28114792Y-3856942D01*
X28114792Y-3856942D02*
X28180037Y-3716821D01*
X28180037Y-3716821D02*
X28242842Y-3575643D01*
X28242842Y-3575643D02*
X28303197Y-3433440D01*
X28303197Y-3433440D02*
X28361094Y-3290245D01*
X28361094Y-3290245D02*
X28416523Y-3146092D01*
X28416523Y-3146092D02*
X28469474Y-3001013D01*
X28469474Y-3001013D02*
X28519939Y-2855042D01*
X28519939Y-2855042D02*
X28567909Y-2708212D01*
X28567909Y-2708212D02*
X28613373Y-2560556D01*
X28613373Y-2560556D02*
X28656324Y-2412106D01*
X28656324Y-2412106D02*
X28696751Y-2262897D01*
X28696751Y-2262897D02*
X28734646Y-2112960D01*
X28734646Y-2112960D02*
X28769999Y-1962330D01*
X28769999Y-1962330D02*
X28802800Y-1811039D01*
X28802800Y-1811039D02*
X28833042Y-1659120D01*
X28833042Y-1659120D02*
X28860715Y-1506606D01*
X28860715Y-1506606D02*
X28885808Y-1353531D01*
X28885808Y-1353531D02*
X28908314Y-1199928D01*
X28908314Y-1199928D02*
X28908314Y-1199928D01*
X-10200411Y-21200256D02*
X-8910050Y-21200256D01*
X-8910050Y-21200256D02*
X-8869517Y-21470078D01*
X-8869517Y-21470078D02*
X-8821009Y-21737781D01*
X-8821009Y-21737781D02*
X-8764620Y-22003207D01*
X-8764620Y-22003207D02*
X-8700443Y-22266197D01*
X-8700443Y-22266197D02*
X-8628571Y-22526595D01*
X-8628571Y-22526595D02*
X-8549095Y-22784241D01*
X-8549095Y-22784241D02*
X-8462109Y-23038979D01*
X-8462109Y-23038979D02*
X-8367706Y-23290649D01*
X-8367706Y-23290649D02*
X-8265979Y-23539094D01*
X-8265979Y-23539094D02*
X-8157020Y-23784156D01*
X-8157020Y-23784156D02*
X-8040922Y-24025677D01*
X-8040922Y-24025677D02*
X-7917778Y-24263499D01*
X-7917778Y-24263499D02*
X-7787680Y-24497465D01*
X-7787680Y-24497465D02*
X-7650722Y-24727415D01*
X-7650722Y-24727415D02*
X-7506996Y-24953192D01*
X-7506996Y-24953192D02*
X-7356595Y-25174638D01*
X-7356595Y-25174638D02*
X-7199612Y-25391595D01*
X-7199612Y-25391595D02*
X-7036140Y-25603905D01*
X-7036140Y-25603905D02*
X-6866271Y-25811410D01*
X-6866271Y-25811410D02*
X-6690098Y-26013952D01*
X-6690098Y-26013952D02*
X-6507714Y-26211373D01*
X-6507714Y-26211373D02*
X-6319211Y-26403516D01*
X-6319211Y-26403516D02*
X-6124684Y-26590221D01*
X-6124684Y-26590221D02*
X-5924223Y-26771332D01*
X-5924223Y-26771332D02*
X-5717923Y-26946689D01*
X-5717923Y-26946689D02*
X-5505875Y-27116136D01*
X-5505875Y-27116136D02*
X-5288173Y-27279514D01*
X-5288173Y-27279514D02*
X-5064909Y-27436665D01*
X-5064909Y-27436665D02*
X-4836177Y-27587431D01*
X-4836177Y-27587431D02*
X-4602068Y-27731654D01*
X-4602068Y-27731654D02*
X-4362677Y-27869176D01*
X-4362677Y-27869176D02*
X-4118095Y-27999840D01*
X-4118095Y-27999840D02*
X-3500045Y-27999840D01*
X-3500045Y-27999840D02*
X-3500045Y-25099760D01*
X-3500045Y-25099760D02*
X-3300057Y-24899772D01*
X-3300057Y-24899772D02*
X-1199927Y-24899772D01*
X-1199927Y-24899772D02*
X-1199927Y-26945124D01*
X-1199927Y-26945124D02*
X-2938322Y-30812073D01*
X-2938322Y-30812073D02*
X-3338559Y-30725472D01*
X-3338559Y-30725472D02*
X-3732572Y-30623167D01*
X-3732572Y-30623167D02*
X-4120018Y-30505500D01*
X-4120018Y-30505500D02*
X-4500552Y-30372816D01*
X-4500552Y-30372816D02*
X-4873831Y-30225457D01*
X-4873831Y-30225457D02*
X-5239512Y-30063768D01*
X-5239512Y-30063768D02*
X-5597250Y-29888090D01*
X-5597250Y-29888090D02*
X-5946703Y-29698769D01*
X-5946703Y-29698769D02*
X-6287527Y-29496147D01*
X-6287527Y-29496147D02*
X-6619377Y-29280568D01*
X-6619377Y-29280568D02*
X-6941910Y-29052375D01*
X-6941910Y-29052375D02*
X-7254783Y-28811911D01*
X-7254783Y-28811911D02*
X-7557653Y-28559521D01*
X-7557653Y-28559521D02*
X-7850174Y-28295547D01*
X-7850174Y-28295547D02*
X-8132004Y-28020332D01*
X-8132004Y-28020332D02*
X-8402800Y-27734221D01*
X-8402800Y-27734221D02*
X-8662216Y-27437557D01*
X-8662216Y-27437557D02*
X-8909911Y-27130683D01*
X-8909911Y-27130683D02*
X-9145540Y-26813943D01*
X-9145540Y-26813943D02*
X-9368759Y-26487680D01*
X-9368759Y-26487680D02*
X-9579225Y-26152237D01*
X-9579225Y-26152237D02*
X-9776595Y-25807957D01*
X-9776595Y-25807957D02*
X-9960524Y-25455186D01*
X-9960524Y-25455186D02*
X-10130669Y-25094264D01*
X-10130669Y-25094264D02*
X-10286687Y-24725537D01*
X-10286687Y-24725537D02*
X-10428233Y-24349348D01*
X-10428233Y-24349348D02*
X-10554964Y-23966040D01*
X-10554964Y-23966040D02*
X-10666537Y-23575956D01*
X-10666537Y-23575956D02*
X-10762608Y-23179439D01*
X-10762608Y-23179439D02*
X-10842832Y-22776834D01*
X-10842832Y-22776834D02*
X-10906868Y-22368484D01*
X-10906868Y-22368484D02*
X-10954370Y-21954732D01*
X-10954370Y-21954732D02*
X-10200411Y-21200256D01*
X8908500Y-21200256D02*
X11089762Y-21200256D01*
X11089762Y-21200256D02*
X11130296Y-21470078D01*
X11130296Y-21470078D02*
X11178803Y-21737781D01*
X11178803Y-21737781D02*
X11235192Y-22003207D01*
X11235192Y-22003207D02*
X11299369Y-22266197D01*
X11299369Y-22266197D02*
X11371242Y-22526595D01*
X11371242Y-22526595D02*
X11450717Y-22784241D01*
X11450717Y-22784241D02*
X11537703Y-23038979D01*
X11537703Y-23038979D02*
X11632106Y-23290649D01*
X11632106Y-23290649D02*
X11733833Y-23539094D01*
X11733833Y-23539094D02*
X11842792Y-23784156D01*
X11842792Y-23784156D02*
X11958890Y-24025677D01*
X11958890Y-24025677D02*
X12082035Y-24263499D01*
X12082035Y-24263499D02*
X12212132Y-24497465D01*
X12212132Y-24497465D02*
X12349090Y-24727415D01*
X12349090Y-24727415D02*
X12492816Y-24953192D01*
X12492816Y-24953192D02*
X12643217Y-25174638D01*
X12643217Y-25174638D02*
X12800200Y-25391595D01*
X12800200Y-25391595D02*
X12963673Y-25603905D01*
X12963673Y-25603905D02*
X13133542Y-25811410D01*
X13133542Y-25811410D02*
X13309715Y-26013952D01*
X13309715Y-26013952D02*
X13492099Y-26211373D01*
X13492099Y-26211373D02*
X13680601Y-26403516D01*
X13680601Y-26403516D02*
X13875129Y-26590221D01*
X13875129Y-26590221D02*
X14075590Y-26771332D01*
X14075590Y-26771332D02*
X14281890Y-26946689D01*
X14281890Y-26946689D02*
X14493938Y-27116136D01*
X14493938Y-27116136D02*
X14711640Y-27279514D01*
X14711640Y-27279514D02*
X14934903Y-27436665D01*
X14934903Y-27436665D02*
X15163636Y-27587431D01*
X15163636Y-27587431D02*
X15397744Y-27731654D01*
X15397744Y-27731654D02*
X15637136Y-27869176D01*
X15637136Y-27869176D02*
X15881718Y-27999840D01*
X15881718Y-27999840D02*
X16499768Y-27999840D01*
X16499768Y-27999840D02*
X16499768Y-25099760D01*
X16499768Y-25099760D02*
X16699756Y-24899772D01*
X16699756Y-24899772D02*
X18799886Y-24899772D01*
X18799886Y-24899772D02*
X18799886Y-26950294D01*
X18799886Y-26950294D02*
X16999996Y-31000176D01*
X16999996Y-31000176D02*
X2999817Y-31000176D01*
X2999817Y-31000176D02*
X1199927Y-26950294D01*
X1199927Y-26950294D02*
X1199927Y-24899772D01*
X1199927Y-24899772D02*
X3300057Y-24899772D01*
X3300057Y-24899772D02*
X3500045Y-25099760D01*
X3500045Y-25099760D02*
X3500045Y-27999840D01*
X3500045Y-27999840D02*
X4082955Y-27999840D01*
X4082955Y-27999840D02*
X4136355Y-27972236D01*
X4136355Y-27972236D02*
X4189561Y-27944281D01*
X4189561Y-27944281D02*
X4242571Y-27915976D01*
X4242571Y-27915976D02*
X4295383Y-27887321D01*
X4295383Y-27887321D02*
X4347995Y-27858318D01*
X4347995Y-27858318D02*
X4400407Y-27828969D01*
X4400407Y-27828969D02*
X4452615Y-27799274D01*
X4452615Y-27799274D02*
X4504619Y-27769233D01*
X4504619Y-27769233D02*
X4556416Y-27738850D01*
X4556416Y-27738850D02*
X4608006Y-27708123D01*
X4608006Y-27708123D02*
X4659386Y-27677056D01*
X4659386Y-27677056D02*
X4710555Y-27645648D01*
X4710555Y-27645648D02*
X4761511Y-27613900D01*
X4761511Y-27613900D02*
X4812253Y-27581815D01*
X4812253Y-27581815D02*
X4862778Y-27549392D01*
X4862778Y-27549392D02*
X4913085Y-27516634D01*
X4913085Y-27516634D02*
X4963173Y-27483541D01*
X4963173Y-27483541D02*
X5013039Y-27450114D01*
X5013039Y-27450114D02*
X5062683Y-27416354D01*
X5062683Y-27416354D02*
X5112101Y-27382263D01*
X5112101Y-27382263D02*
X5161294Y-27347841D01*
X5161294Y-27347841D02*
X5210258Y-27313090D01*
X5210258Y-27313090D02*
X5258993Y-27278011D01*
X5258993Y-27278011D02*
X5307496Y-27242605D01*
X5307496Y-27242605D02*
X5355766Y-27206872D01*
X5355766Y-27206872D02*
X5403802Y-27170815D01*
X5403802Y-27170815D02*
X5451601Y-27134434D01*
X5451601Y-27134434D02*
X5499162Y-27097730D01*
X5499162Y-27097730D02*
X5546483Y-27060704D01*
X5546483Y-27060704D02*
X5593563Y-27023358D01*
X5593563Y-27023358D02*
X5640399Y-26985693D01*
X5640399Y-26985693D02*
X5686991Y-26947709D01*
X5686991Y-26947709D02*
X5663536Y-26915842D01*
X5663536Y-26915842D02*
X5641571Y-26883081D01*
X5641571Y-26883081D02*
X5621115Y-26849477D01*
X5621115Y-26849477D02*
X5602185Y-26815086D01*
X5602185Y-26815086D02*
X5584801Y-26779959D01*
X5584801Y-26779959D02*
X5568980Y-26744150D01*
X5568980Y-26744150D02*
X5554740Y-26707712D01*
X5554740Y-26707712D02*
X5542099Y-26670698D01*
X5542099Y-26670698D02*
X5531076Y-26633161D01*
X5531076Y-26633161D02*
X5521689Y-26595155D01*
X5521689Y-26595155D02*
X5513955Y-26556732D01*
X5513955Y-26556732D02*
X5507894Y-26517946D01*
X5507894Y-26517946D02*
X5503522Y-26478850D01*
X5503522Y-26478850D02*
X5500859Y-26439496D01*
X5500859Y-26439496D02*
X5499922Y-26399939D01*
X5499922Y-26399939D02*
X5501084Y-26353610D01*
X5501084Y-26353610D02*
X5504551Y-26307889D01*
X5504551Y-26307889D02*
X5510268Y-26262833D01*
X5510268Y-26262833D02*
X5518177Y-26218498D01*
X5518177Y-26218498D02*
X5528223Y-26174941D01*
X5528223Y-26174941D02*
X5540348Y-26132219D01*
X5540348Y-26132219D02*
X5554496Y-26090387D01*
X5554496Y-26090387D02*
X5570611Y-26049503D01*
X5570611Y-26049503D02*
X5588635Y-26009624D01*
X5588635Y-26009624D02*
X5608513Y-25970805D01*
X5608513Y-25970805D02*
X5630187Y-25933104D01*
X5630187Y-25933104D02*
X5653602Y-25896576D01*
X5653602Y-25896576D02*
X5678699Y-25861279D01*
X5678699Y-25861279D02*
X5705424Y-25827270D01*
X5705424Y-25827270D02*
X5733718Y-25794604D01*
X5733718Y-25794604D02*
X5763526Y-25763339D01*
X5763526Y-25763339D02*
X5794792Y-25733531D01*
X5794792Y-25733531D02*
X5827457Y-25705236D01*
X5827457Y-25705236D02*
X5861467Y-25678512D01*
X5861467Y-25678512D02*
X5896764Y-25653414D01*
X5896764Y-25653414D02*
X5933291Y-25630000D01*
X5933291Y-25630000D02*
X5970992Y-25608326D01*
X5970992Y-25608326D02*
X6009811Y-25588448D01*
X6009811Y-25588448D02*
X6049691Y-25570424D01*
X6049691Y-25570424D02*
X6090575Y-25554309D01*
X6090575Y-25554309D02*
X6132406Y-25540161D01*
X6132406Y-25540161D02*
X6175129Y-25528036D01*
X6175129Y-25528036D02*
X6218686Y-25517990D01*
X6218686Y-25517990D02*
X6263020Y-25510080D01*
X6263020Y-25510080D02*
X6308077Y-25504364D01*
X6308077Y-25504364D02*
X6353797Y-25500896D01*
X6353797Y-25500896D02*
X6400126Y-25499735D01*
X6400126Y-25499735D02*
X6439907Y-25500688D01*
X6439907Y-25500688D02*
X6479481Y-25503386D01*
X6479481Y-25503386D02*
X6518793Y-25507811D01*
X6518793Y-25507811D02*
X6557789Y-25513944D01*
X6557789Y-25513944D02*
X6596416Y-25521767D01*
X6596416Y-25521767D02*
X6634619Y-25531261D01*
X6634619Y-25531261D02*
X6672345Y-25542409D01*
X6672345Y-25542409D02*
X6709539Y-25555190D01*
X6709539Y-25555190D02*
X6746148Y-25569587D01*
X6746148Y-25569587D02*
X6782117Y-25585582D01*
X6782117Y-25585582D02*
X6817393Y-25603156D01*
X6817393Y-25603156D02*
X6851921Y-25622290D01*
X6851921Y-25622290D02*
X6885647Y-25642966D01*
X6885647Y-25642966D02*
X6918518Y-25665166D01*
X6918518Y-25665166D02*
X6950480Y-25688871D01*
X6950480Y-25688871D02*
X7048912Y-25567043D01*
X7048912Y-25567043D02*
X7145034Y-25443694D01*
X7145034Y-25443694D02*
X7238835Y-25318859D01*
X7238835Y-25318859D02*
X7330308Y-25192569D01*
X7330308Y-25192569D02*
X7419443Y-25064858D01*
X7419443Y-25064858D02*
X7506231Y-24935758D01*
X7506231Y-24935758D02*
X7590661Y-24805304D01*
X7590661Y-24805304D02*
X7672726Y-24673528D01*
X7672726Y-24673528D02*
X7752416Y-24540463D01*
X7752416Y-24540463D02*
X7829722Y-24406142D01*
X7829722Y-24406142D02*
X7904634Y-24270598D01*
X7904634Y-24270598D02*
X7977143Y-24133864D01*
X7977143Y-24133864D02*
X8047240Y-23995974D01*
X8047240Y-23995974D02*
X8114916Y-23856960D01*
X8114916Y-23856960D02*
X8180161Y-23716856D01*
X8180161Y-23716856D02*
X8242966Y-23575694D01*
X8242966Y-23575694D02*
X8303322Y-23433507D01*
X8303322Y-23433507D02*
X8361220Y-23290330D01*
X8361220Y-23290330D02*
X8416651Y-23146193D01*
X8416651Y-23146193D02*
X8469605Y-23001132D01*
X8469605Y-23001132D02*
X8520073Y-22855178D01*
X8520073Y-22855178D02*
X8568045Y-22708366D01*
X8568045Y-22708366D02*
X8613513Y-22560727D01*
X8613513Y-22560727D02*
X8656468Y-22412295D01*
X8656468Y-22412295D02*
X8696899Y-22263103D01*
X8696899Y-22263103D02*
X8734798Y-22113184D01*
X8734798Y-22113184D02*
X8770156Y-21962571D01*
X8770156Y-21962571D02*
X8802963Y-21811297D01*
X8802963Y-21811297D02*
X8833210Y-21659396D01*
X8833210Y-21659396D02*
X8860888Y-21506900D01*
X8860888Y-21506900D02*
X8885988Y-21353842D01*
X8885988Y-21353842D02*
X8908500Y-21200256D01*
X8908500Y-21200256D02*
X8908500Y-21200256D01*
X28908314Y-21200256D02*
X30200740Y-21200256D01*
X30200740Y-21200256D02*
X30954699Y-21954732D01*
X30954699Y-21954732D02*
X30907198Y-22368482D01*
X30907198Y-22368482D02*
X30843163Y-22776830D01*
X30843163Y-22776830D02*
X30762940Y-23179433D01*
X30762940Y-23179433D02*
X30666870Y-23575947D01*
X30666870Y-23575947D02*
X30555299Y-23966030D01*
X30555299Y-23966030D02*
X30428569Y-24349337D01*
X30428569Y-24349337D02*
X30287024Y-24725525D01*
X30287024Y-24725525D02*
X30131008Y-25094250D01*
X30131008Y-25094250D02*
X29960865Y-25455170D01*
X29960865Y-25455170D02*
X29776937Y-25807941D01*
X29776937Y-25807941D02*
X29579569Y-26152219D01*
X29579569Y-26152219D02*
X29369105Y-26487661D01*
X29369105Y-26487661D02*
X29145887Y-26813924D01*
X29145887Y-26813924D02*
X28910259Y-27130664D01*
X28910259Y-27130664D02*
X28662566Y-27437538D01*
X28662566Y-27437538D02*
X28403150Y-27734202D01*
X28403150Y-27734202D02*
X28132356Y-28020312D01*
X28132356Y-28020312D02*
X27850526Y-28295527D01*
X27850526Y-28295527D02*
X27558005Y-28559501D01*
X27558005Y-28559501D02*
X27255136Y-28811892D01*
X27255136Y-28811892D02*
X26942263Y-29052356D01*
X26942263Y-29052356D02*
X26619730Y-29280550D01*
X26619730Y-29280550D02*
X26287879Y-29496130D01*
X26287879Y-29496130D02*
X25947055Y-29698753D01*
X25947055Y-29698753D02*
X25597601Y-29888076D01*
X25597601Y-29888076D02*
X25239860Y-30063755D01*
X25239860Y-30063755D02*
X24874177Y-30225446D01*
X24874177Y-30225446D02*
X24500896Y-30372807D01*
X24500896Y-30372807D02*
X24120358Y-30505493D01*
X24120358Y-30505493D02*
X23732910Y-30623162D01*
X23732910Y-30623162D02*
X23338893Y-30725470D01*
X23338893Y-30725470D02*
X22938651Y-30812073D01*
X22938651Y-30812073D02*
X21200256Y-26946159D01*
X21200256Y-26946159D02*
X21200256Y-24899772D01*
X21200256Y-24899772D02*
X23299869Y-24899772D01*
X23299869Y-24899772D02*
X23499857Y-25099760D01*
X23499857Y-25099760D02*
X23499857Y-27999840D01*
X23499857Y-27999840D02*
X24082767Y-27999840D01*
X24082767Y-27999840D02*
X24136167Y-27972236D01*
X24136167Y-27972236D02*
X24189373Y-27944281D01*
X24189373Y-27944281D02*
X24242383Y-27915976D01*
X24242383Y-27915976D02*
X24295195Y-27887321D01*
X24295195Y-27887321D02*
X24347807Y-27858318D01*
X24347807Y-27858318D02*
X24400219Y-27828969D01*
X24400219Y-27828969D02*
X24452427Y-27799274D01*
X24452427Y-27799274D02*
X24504431Y-27769233D01*
X24504431Y-27769233D02*
X24556229Y-27738850D01*
X24556229Y-27738850D02*
X24607818Y-27708123D01*
X24607818Y-27708123D02*
X24659199Y-27677056D01*
X24659199Y-27677056D02*
X24710368Y-27645648D01*
X24710368Y-27645648D02*
X24761324Y-27613900D01*
X24761324Y-27613900D02*
X24812065Y-27581815D01*
X24812065Y-27581815D02*
X24862590Y-27549392D01*
X24862590Y-27549392D02*
X24912898Y-27516634D01*
X24912898Y-27516634D02*
X24962985Y-27483541D01*
X24962985Y-27483541D02*
X25012852Y-27450114D01*
X25012852Y-27450114D02*
X25062495Y-27416354D01*
X25062495Y-27416354D02*
X25111914Y-27382263D01*
X25111914Y-27382263D02*
X25161106Y-27347841D01*
X25161106Y-27347841D02*
X25210070Y-27313090D01*
X25210070Y-27313090D02*
X25258805Y-27278011D01*
X25258805Y-27278011D02*
X25307308Y-27242605D01*
X25307308Y-27242605D02*
X25355579Y-27206872D01*
X25355579Y-27206872D02*
X25403614Y-27170815D01*
X25403614Y-27170815D02*
X25451413Y-27134434D01*
X25451413Y-27134434D02*
X25498974Y-27097730D01*
X25498974Y-27097730D02*
X25546296Y-27060704D01*
X25546296Y-27060704D02*
X25593375Y-27023358D01*
X25593375Y-27023358D02*
X25640212Y-26985693D01*
X25640212Y-26985693D02*
X25686804Y-26947709D01*
X25686804Y-26947709D02*
X25663349Y-26915842D01*
X25663349Y-26915842D02*
X25641384Y-26883081D01*
X25641384Y-26883081D02*
X25620928Y-26849477D01*
X25620928Y-26849477D02*
X25601998Y-26815086D01*
X25601998Y-26815086D02*
X25584614Y-26779959D01*
X25584614Y-26779959D02*
X25568792Y-26744150D01*
X25568792Y-26744150D02*
X25554552Y-26707712D01*
X25554552Y-26707712D02*
X25541912Y-26670698D01*
X25541912Y-26670698D02*
X25530889Y-26633161D01*
X25530889Y-26633161D02*
X25521501Y-26595155D01*
X25521501Y-26595155D02*
X25513768Y-26556732D01*
X25513768Y-26556732D02*
X25507706Y-26517946D01*
X25507706Y-26517946D02*
X25503335Y-26478850D01*
X25503335Y-26478850D02*
X25500672Y-26439496D01*
X25500672Y-26439496D02*
X25499735Y-26399939D01*
X25499735Y-26399939D02*
X25500896Y-26353610D01*
X25500896Y-26353610D02*
X25504364Y-26307889D01*
X25504364Y-26307889D02*
X25510080Y-26262833D01*
X25510080Y-26262833D02*
X25517990Y-26218498D01*
X25517990Y-26218498D02*
X25528035Y-26174941D01*
X25528035Y-26174941D02*
X25540160Y-26132219D01*
X25540160Y-26132219D02*
X25554309Y-26090387D01*
X25554309Y-26090387D02*
X25570423Y-26049503D01*
X25570423Y-26049503D02*
X25588448Y-26009624D01*
X25588448Y-26009624D02*
X25608325Y-25970805D01*
X25608325Y-25970805D02*
X25630000Y-25933104D01*
X25630000Y-25933104D02*
X25653414Y-25896576D01*
X25653414Y-25896576D02*
X25678512Y-25861279D01*
X25678512Y-25861279D02*
X25705236Y-25827270D01*
X25705236Y-25827270D02*
X25733531Y-25794604D01*
X25733531Y-25794604D02*
X25763339Y-25763339D01*
X25763339Y-25763339D02*
X25794604Y-25733531D01*
X25794604Y-25733531D02*
X25827270Y-25705236D01*
X25827270Y-25705236D02*
X25861280Y-25678512D01*
X25861280Y-25678512D02*
X25896576Y-25653414D01*
X25896576Y-25653414D02*
X25933104Y-25630000D01*
X25933104Y-25630000D02*
X25970805Y-25608326D01*
X25970805Y-25608326D02*
X26009624Y-25588448D01*
X26009624Y-25588448D02*
X26049504Y-25570424D01*
X26049504Y-25570424D02*
X26090388Y-25554309D01*
X26090388Y-25554309D02*
X26132219Y-25540161D01*
X26132219Y-25540161D02*
X26174942Y-25528036D01*
X26174942Y-25528036D02*
X26218499Y-25517990D01*
X26218499Y-25517990D02*
X26262833Y-25510080D01*
X26262833Y-25510080D02*
X26307890Y-25504364D01*
X26307890Y-25504364D02*
X26353610Y-25500896D01*
X26353610Y-25500896D02*
X26399939Y-25499735D01*
X26399939Y-25499735D02*
X26439720Y-25500688D01*
X26439720Y-25500688D02*
X26479294Y-25503386D01*
X26479294Y-25503386D02*
X26518606Y-25507811D01*
X26518606Y-25507811D02*
X26557602Y-25513944D01*
X26557602Y-25513944D02*
X26596229Y-25521767D01*
X26596229Y-25521767D02*
X26634432Y-25531261D01*
X26634432Y-25531261D02*
X26672157Y-25542409D01*
X26672157Y-25542409D02*
X26709351Y-25555190D01*
X26709351Y-25555190D02*
X26745960Y-25569587D01*
X26745960Y-25569587D02*
X26781929Y-25585582D01*
X26781929Y-25585582D02*
X26817205Y-25603156D01*
X26817205Y-25603156D02*
X26851733Y-25622290D01*
X26851733Y-25622290D02*
X26885460Y-25642966D01*
X26885460Y-25642966D02*
X26918332Y-25665166D01*
X26918332Y-25665166D02*
X26950294Y-25688871D01*
X26950294Y-25688871D02*
X27048725Y-25567043D01*
X27048725Y-25567043D02*
X27144846Y-25443694D01*
X27144846Y-25443694D02*
X27238647Y-25318859D01*
X27238647Y-25318859D02*
X27330119Y-25192569D01*
X27330119Y-25192569D02*
X27419254Y-25064858D01*
X27419254Y-25064858D02*
X27506041Y-24935758D01*
X27506041Y-24935758D02*
X27590471Y-24805304D01*
X27590471Y-24805304D02*
X27672536Y-24673528D01*
X27672536Y-24673528D02*
X27752225Y-24540463D01*
X27752225Y-24540463D02*
X27829531Y-24406142D01*
X27829531Y-24406142D02*
X27904443Y-24270598D01*
X27904443Y-24270598D02*
X27976952Y-24133864D01*
X27976952Y-24133864D02*
X28047049Y-23995974D01*
X28047049Y-23995974D02*
X28114725Y-23856960D01*
X28114725Y-23856960D02*
X28179970Y-23716856D01*
X28179970Y-23716856D02*
X28242776Y-23575694D01*
X28242776Y-23575694D02*
X28303132Y-23433507D01*
X28303132Y-23433507D02*
X28361030Y-23290330D01*
X28361030Y-23290330D02*
X28416461Y-23146193D01*
X28416461Y-23146193D02*
X28469415Y-23001132D01*
X28469415Y-23001132D02*
X28519883Y-22855178D01*
X28519883Y-22855178D02*
X28567856Y-22708366D01*
X28567856Y-22708366D02*
X28613325Y-22560727D01*
X28613325Y-22560727D02*
X28656279Y-22412295D01*
X28656279Y-22412295D02*
X28696711Y-22263103D01*
X28696711Y-22263103D02*
X28734611Y-22113184D01*
X28734611Y-22113184D02*
X28769969Y-21962571D01*
X28769969Y-21962571D02*
X28802776Y-21811297D01*
X28802776Y-21811297D02*
X28833024Y-21659396D01*
X28833024Y-21659396D02*
X28860702Y-21506900D01*
X28860702Y-21506900D02*
X28885802Y-21353842D01*
X28885802Y-21353842D02*
X28908314Y-21200256D01*
X28908314Y-21200256D02*
X28908314Y-21200256D01*
M02*
