M48
METRIC,TZ
T1C0.400
%
G90
G05
T1
X5.646Y-18.857
X5.691Y-13.922
X6.646Y-78.857
X6.691Y-73.922
X7.656Y-15.343
X7.695Y-17.574
X8.656Y-75.343
X8.695Y-77.574
X9.717Y-14.453
X9.773Y-18.381
X10.187Y-20.763
X10.272Y-12.106
X10.717Y-74.453
X10.773Y-78.381
X11.187Y-80.763
X11.21Y-30.52
X11.272Y-72.106
X11.295Y-16.022
X11.638Y-21.267
X12.21Y-90.52
X12.295Y-76.022
X12.638Y-81.267
X12.94Y-35.15
X13.55Y-31.14
X13.691Y-15.665
X13.94Y-95.15
X14.39Y-33.22
X14.55Y-91.14
X14.691Y-75.665
X14.83Y-27.19
X15.15Y-29.58
X15.168Y-22.324
X15.39Y-93.22
X15.83Y-87.19
X16.15Y-89.58
X16.168Y-82.324
X16.448Y-11.604
X16.495Y-6.675
X16.523Y-13.134
X16.616Y-23.505
X16.63Y-33.21
X17.405Y-21.787
X17.406Y-17.37
X17.448Y-71.604
X17.47Y-31.15
X17.495Y-66.675
X17.523Y-73.134
X17.616Y-83.505
X17.63Y-93.21
X17.86Y-35.29
X18.405Y-81.787
X18.406Y-77.37
X18.457Y-8.082
X18.47Y-91.15
X18.501Y-10.325
X18.554Y-15.898
X18.86Y-95.29
X18.953Y-21.702
X19.136Y-18.128
X19.256Y-19.665
X19.457Y-68.082
X19.501Y-70.325
X19.554Y-75.898
X19.635Y-26.006
X19.86Y-30.79
X19.953Y-81.702
X19.981Y-23.721
X20.136Y-78.128
X20.256Y-79.665
X20.4Y-29.34
X20.492Y-22.268
X20.512Y-7.209
X20.635Y-86.006
X20.86Y-90.79
X20.895Y-19.572
X20.981Y-83.721
X21.076Y-4.854
X21.253Y-10.841
X21.27Y-25.108
X21.4Y-89.34
X21.492Y-82.268
X21.512Y-67.209
X21.589Y-21.059
X21.895Y-79.572
X22.076Y-64.854
X22.104Y-8.769
X22.253Y-70.841
X22.267Y-18.89
X22.27Y-85.108
X22.331Y-17.003
X22.49Y-12.913
X22.589Y-81.059
X22.751Y-22.075
X23.104Y-68.769
X23.267Y-78.89
X23.331Y-77.003
X23.49Y-72.913
X23.751Y-82.075
X24.006Y-28.144
X24.114Y-17.506
X24.495Y-8.412
X24.52Y-21.397
X24.726Y-23.254
X25.006Y-88.144
X25.114Y-77.506
X25.495Y-68.412
X25.52Y-81.397
X25.646Y-48.857
X25.691Y-43.922
X25.726Y-83.254
X25.73Y-32.77
X25.904Y-14.575
X26.344Y-28.761
X26.73Y-92.77
X26.904Y-74.575
X27.18Y-30.83
X27.294Y-13.932
X27.344Y-88.761
X27.656Y-45.343
X27.695Y-47.574
X28.112Y-23.802
X28.18Y-90.83
X28.294Y-73.932
X28.363Y-20.014
X28.678Y-27.196
X29.112Y-83.802
X29.24Y-24.856
X29.258Y-15.352
X29.363Y-80.014
X29.42Y-30.83
X29.678Y-87.196
X29.717Y-44.453
X29.773Y-48.381
X29.819Y-18.092
X30.187Y-50.763
X30.24Y-84.856
X30.258Y-75.352
X30.263Y-28.755
X30.272Y-42.106
X30.42Y-90.83
X30.66Y-32.91
X30.819Y-78.092
X31.21Y-60.52
X31.263Y-88.755
X31.295Y-46.022
X31.315Y-14.453
X31.638Y-51.267
X31.66Y-92.91
X31.876Y-12.113
X32.052Y-18.099
X32.315Y-74.453
X32.659Y-28.405
X32.876Y-72.113
X32.902Y-16.027
X32.94Y-65.15
X33.052Y-78.099
X33.305Y-20.174
X33.55Y-61.14
X33.659Y-88.405
X33.691Y-45.665
X33.902Y-76.027
X34.305Y-80.174
X34.39Y-63.22
X34.83Y-57.19
X35.15Y-59.58
X35.168Y-52.324
X35.289Y-15.665
X36.289Y-75.665
X36.448Y-41.604
X36.495Y-36.675
X36.523Y-43.134
X36.616Y-53.505
X36.63Y-63.21
X37.405Y-51.787
X37.406Y-47.37
X37.47Y-61.15
X37.86Y-65.29
X38.457Y-38.082
X38.501Y-40.325
X38.554Y-45.898
X38.953Y-51.702
X39.136Y-48.128
X39.256Y-49.665
X39.635Y-56.006
X39.86Y-60.79
X39.981Y-53.721
X40.4Y-59.34
X40.492Y-52.268
X40.512Y-37.209
X40.895Y-49.572
X41.076Y-34.854
X41.253Y-40.841
X41.27Y-55.108
X41.589Y-51.059
X42.104Y-38.769
X42.267Y-48.89
X42.331Y-47.003
X42.49Y-42.913
X42.751Y-52.075
X44.006Y-58.144
X44.114Y-47.506
X44.495Y-38.412
X44.52Y-51.397
X44.646Y-18.857
X44.691Y-13.922
X44.726Y-53.254
X45.646Y-78.857
X45.691Y-73.922
X45.73Y-62.77
X45.904Y-44.575
X46.344Y-58.761
X46.656Y-15.343
X46.695Y-17.574
X47.18Y-60.83
X47.294Y-43.932
X47.656Y-75.343
X47.695Y-77.574
X48.112Y-53.802
X48.363Y-50.014
X48.678Y-57.196
X48.717Y-14.453
X48.773Y-18.381
X49.187Y-20.763
X49.24Y-54.856
X49.258Y-45.352
X49.272Y-12.106
X49.42Y-60.83
X49.717Y-74.453
X49.773Y-78.381
X49.819Y-48.092
X50.187Y-80.763
X50.21Y-30.52
X50.263Y-58.755
X50.272Y-72.106
X50.295Y-16.022
X50.638Y-21.267
X50.66Y-62.91
X51.21Y-90.52
X51.295Y-76.022
X51.315Y-44.453
X51.638Y-81.267
X51.876Y-42.113
X51.94Y-35.15
X52.052Y-48.099
X52.55Y-31.14
X52.659Y-58.405
X52.691Y-15.665
X52.902Y-46.027
X52.94Y-95.15
X53.305Y-50.174
X53.39Y-33.22
X53.55Y-91.14
X53.691Y-75.665
X53.83Y-27.19
X54.15Y-29.58
X54.168Y-22.324
X54.39Y-93.22
X54.83Y-87.19
X55.15Y-89.58
X55.168Y-82.324
X55.289Y-45.665
X55.448Y-11.604
X55.495Y-6.675
X55.523Y-13.134
X55.616Y-23.505
X55.63Y-33.21
X56.405Y-21.787
X56.406Y-17.37
X56.448Y-71.604
X56.47Y-31.15
X56.495Y-66.675
X56.523Y-73.134
X56.616Y-83.505
X56.63Y-93.21
X56.86Y-35.29
X57.405Y-81.787
X57.406Y-77.37
X57.457Y-8.082
X57.47Y-91.15
X57.501Y-10.325
X57.554Y-15.898
X57.86Y-95.29
X57.953Y-21.702
X58.136Y-18.128
X58.256Y-19.665
X58.457Y-68.082
X58.501Y-70.325
X58.554Y-75.898
X58.635Y-26.006
X58.86Y-30.79
X58.953Y-81.702
X58.981Y-23.721
X59.136Y-78.128
X59.256Y-79.665
X59.4Y-29.34
X59.492Y-22.268
X59.512Y-7.209
X59.635Y-86.006
X59.86Y-90.79
X59.895Y-19.572
X59.981Y-83.721
X60.076Y-4.854
X60.253Y-10.841
X60.27Y-25.108
X60.4Y-89.34
X60.492Y-82.268
X60.512Y-67.209
X60.589Y-21.059
X60.895Y-79.572
X61.076Y-64.854
X61.104Y-8.769
X61.253Y-70.841
X61.267Y-18.89
X61.27Y-85.108
X61.331Y-17.003
X61.49Y-12.913
X61.589Y-81.059
X61.751Y-22.075
X62.104Y-68.769
X62.267Y-78.89
X62.331Y-77.003
X62.49Y-72.913
X62.751Y-82.075
X63.006Y-28.144
X63.114Y-17.506
X63.495Y-8.412
X63.52Y-21.397
X63.726Y-23.254
X64.006Y-88.144
X64.114Y-77.506
X64.495Y-68.412
X64.52Y-81.397
X64.646Y-48.857
X64.691Y-43.922
X64.726Y-83.254
X64.73Y-32.77
X64.904Y-14.575
X65.344Y-28.761
X65.73Y-92.77
X65.904Y-74.575
X66.18Y-30.83
X66.294Y-13.932
X66.344Y-88.761
X66.656Y-45.343
X66.695Y-47.574
X67.112Y-23.802
X67.18Y-90.83
X67.294Y-73.932
X67.363Y-20.014
X67.678Y-27.196
X68.112Y-83.802
X68.24Y-24.856
X68.258Y-15.352
X68.363Y-80.014
X68.42Y-30.83
X68.678Y-87.196
X68.717Y-44.453
X68.773Y-48.381
X68.819Y-18.092
X69.187Y-50.763
X69.24Y-84.856
X69.258Y-75.352
X69.263Y-28.755
X69.272Y-42.106
X69.42Y-90.83
X69.66Y-32.91
X69.819Y-78.092
X70.21Y-60.52
X70.263Y-88.755
X70.295Y-46.022
X70.315Y-14.453
X70.638Y-51.267
X70.66Y-92.91
X70.876Y-12.113
X71.052Y-18.099
X71.315Y-74.453
X71.659Y-28.405
X71.876Y-72.113
X71.902Y-16.027
X71.94Y-65.15
X72.052Y-78.099
X72.305Y-20.174
X72.55Y-61.14
X72.659Y-88.405
X72.691Y-45.665
X72.902Y-76.027
X73.305Y-80.174
X73.39Y-63.22
X73.83Y-57.19
X74.15Y-59.58
X74.168Y-52.324
X74.289Y-15.665
X75.289Y-75.665
X75.448Y-41.604
X75.495Y-36.675
X75.523Y-43.134
X75.616Y-53.505
X75.63Y-63.21
X76.405Y-51.787
X76.406Y-47.37
X76.47Y-61.15
X76.86Y-65.29
X77.457Y-38.082
X77.501Y-40.325
X77.554Y-45.898
X77.953Y-51.702
X78.136Y-48.128
X78.256Y-49.665
X78.635Y-56.006
X78.86Y-60.79
X78.981Y-53.721
X79.4Y-59.34
X79.492Y-52.268
X79.512Y-37.209
X79.895Y-49.572
X80.076Y-34.854
X80.253Y-40.841
X80.27Y-55.108
X80.589Y-51.059
X81.104Y-38.769
X81.267Y-48.89
X81.331Y-47.003
X81.49Y-42.913
X81.751Y-52.075
X83.006Y-58.144
X83.114Y-47.506
X83.495Y-38.412
X83.52Y-51.397
X83.726Y-53.254
X84.73Y-62.77
X84.904Y-44.575
X85.344Y-58.761
X86.18Y-60.83
X86.294Y-43.932
X87.112Y-53.802
X87.363Y-50.014
X87.678Y-57.196
X88.24Y-54.856
X88.258Y-45.352
X88.42Y-60.83
X88.819Y-48.092
X89.263Y-58.755
X89.66Y-62.91
X90.315Y-44.453
X90.876Y-42.113
X91.052Y-48.099
X91.659Y-58.405
X91.902Y-46.027
X92.305Y-50.174
X94.289Y-45.665
T0
M30
