M48
METRIC,TZ
T1C0.400
T2C3.000
%
G90
G05
T1
X9.Y-75.95
X9.01Y-27.39
X9.43Y-74.28
X9.44Y-25.72
X10.4Y-76.64
X10.41Y-28.08
X11.79Y-69.44
X11.8Y-20.88
X11.96Y-73.68
X11.97Y-25.12
X12.45Y-68.01
X12.46Y-19.45
X13.22Y-78.87
X13.23Y-30.31
X13.34Y-74.36
X13.35Y-25.8
X13.67Y-76.31
X13.68Y-27.75
X14.12Y-72.33
X14.13Y-23.77
X14.13Y-68.42
X14.14Y-19.86
X14.67Y-79.92
X14.68Y-31.36
X14.77Y-70.94
X14.78Y-22.38
X14.81Y-75.29
X14.82Y-26.73
X15.78Y-78.89
X15.79Y-30.33
X15.83Y-72.61
X15.84Y-24.05
X16.22Y-74.29
X16.23Y-25.73
X16.64Y-61.59
X16.65Y-13.03
X16.75Y-75.7
X16.76Y-27.14
X17.07Y-59.9
X17.08Y-11.34
X17.36Y-72.67
X17.37Y-24.11
X17.64Y-69.33
X17.65Y-20.77
X18.03Y-62.25
X18.04Y-13.69
X18.08Y-56.39
X18.09Y-7.83
X18.19Y-54.87
X18.2Y-6.31
X18.96Y-77.07
X18.97Y-28.51
X19.17Y-69.42
X19.18Y-20.86
X19.47Y-71.13
X19.48Y-22.57
X19.63Y-59.3
X19.64Y-10.74
X19.91Y-54.63
X19.92Y-6.07
X19.95Y-74.77
X19.96Y-26.21
X20.44Y-76.19
X20.45Y-27.63
X20.87Y-64.53
X20.88Y-15.97
X20.92Y-85.22
X20.93Y-36.66
X20.98Y-60.
X20.99Y-11.44
X21.29Y-86.7
X21.3Y-38.14
X21.3Y-58.3
X21.31Y-9.74
X21.32Y-61.94
X21.33Y-13.38
X21.39Y-56.76
X21.39Y-90.34
X21.4Y-8.2
X21.4Y-41.78
X21.48Y-92.07
X21.49Y-43.51
X22.29Y-65.55
X22.3Y-16.99
X22.45Y-60.9
X22.46Y-12.34
X22.46Y-84.49
X22.47Y-35.93
X23.Y-92.28
X23.01Y-43.72
X23.44Y-64.53
X23.45Y-15.97
X23.49Y-58.22
X23.5Y-9.66
X23.63Y-89.01
X23.64Y-40.45
X23.89Y-59.94
X23.89Y-69.23
X23.9Y-11.38
X23.9Y-20.67
X24.27Y-70.73
X24.28Y-22.17
X24.35Y-74.33
X24.36Y-25.77
X24.4Y-61.36
X24.41Y-12.8
X24.44Y-76.09
X24.45Y-27.53
X24.56Y-86.09
X24.57Y-37.53
X24.88Y-87.53
X24.89Y-38.97
X25.01Y-58.34
X25.02Y-9.78
X25.12Y-89.24
X25.13Y-40.68
X25.28Y-54.99
X25.29Y-6.43
X25.49Y-68.47
X25.5Y-19.91
X25.82Y-83.
X25.83Y-34.44
X25.97Y-76.32
X25.98Y-27.76
X26.05Y-91.
X26.06Y-42.44
X26.39Y-93.59
X26.4Y-45.03
X26.43Y-86.7
X26.44Y-38.14
X26.59Y-62.74
X26.6Y-14.18
X26.6Y-73.03
X26.61Y-24.47
X26.82Y-55.04
X26.83Y-6.48
X26.83Y-89.66
X26.84Y-41.1
X27.08Y-82.07
X27.09Y-33.51
X27.11Y-56.77
X27.12Y-8.21
X27.54Y-70.08
X27.55Y-21.52
X27.57Y-60.39
X27.58Y-11.83
X27.67Y-85.79
X27.68Y-37.23
X27.86Y-88.29
X27.87Y-39.73
X27.89Y-71.58
X27.9Y-23.02
X28.06Y-94.16
X28.07Y-45.6
X28.1Y-61.83
X28.11Y-13.27
X28.11Y-73.26
X28.12Y-24.7
X28.38Y-83.27
X28.39Y-34.71
X28.76Y-89.53
X28.77Y-40.97
X28.82Y-67.03
X28.82Y-92.8
X28.83Y-18.47
X28.83Y-44.24
X29.04Y-75.03
X29.05Y-26.47
X29.36Y-77.61
X29.37Y-29.05
X29.39Y-70.73
X29.4Y-22.17
X29.78Y-73.72
X29.79Y-25.16
X30.04Y-66.1
X30.05Y-17.54
X30.65Y-69.77
X30.66Y-21.21
X30.86Y-72.33
X30.87Y-23.77
X31.01Y-78.16
X31.02Y-29.6
X31.3Y-90.18
X31.31Y-41.62
X31.32Y-67.3
X31.33Y-18.74
X31.53Y-87.64
X31.54Y-39.08
X31.75Y-73.55
X31.76Y-24.99
X31.81Y-76.85
X31.82Y-28.29
X32.47Y-88.85
X32.48Y-40.29
X32.83Y-63.25
X32.84Y-14.69
X33.25Y-61.56
X33.26Y-13.
X33.64Y-81.16
X33.65Y-32.6
X34.21Y-63.91
X34.22Y-15.35
X34.25Y-58.07
X34.25Y-74.18
X34.26Y-9.51
X34.26Y-25.62
X34.34Y-56.52
X34.35Y-7.96
X34.46Y-82.5
X34.47Y-33.94
X34.47Y-71.66
X34.48Y-23.1
X34.94Y-80.02
X34.95Y-31.46
X35.43Y-72.88
X35.44Y-24.32
X35.64Y-85.9
X35.65Y-37.34
X35.79Y-60.97
X35.8Y-12.41
X36.09Y-56.29
X36.1Y-7.73
X36.23Y-87.55
X36.24Y-38.99
X37.06Y-66.15
X37.07Y-17.59
X37.17Y-61.64
X37.18Y-13.08
X37.4Y-83.99
X37.41Y-35.43
X37.42Y-80.87
X37.43Y-32.31
X37.48Y-59.94
X37.49Y-11.38
X37.49Y-63.57
X37.5Y-15.01
X37.56Y-58.42
X37.57Y-9.86
X37.66Y-77.61
X37.67Y-29.05
X37.77Y-87.28
X37.78Y-38.72
X38.17Y-82.19
X38.18Y-33.63
X38.47Y-67.19
X38.48Y-18.63
X38.58Y-76.36
X38.59Y-27.8
X38.62Y-62.52
X38.63Y-13.96
X38.89Y-83.72
X38.9Y-35.16
X39.16Y-59.56
X39.17Y-11.
X39.34Y-80.96
X39.35Y-32.4
X39.62Y-66.15
X39.63Y-17.59
X39.66Y-55.88
X39.67Y-7.32
X40.03Y-61.54
X40.04Y-12.98
X40.18Y-77.09
X40.19Y-28.53
X40.25Y-79.68
X40.26Y-31.12
X40.3Y-85.18
X40.31Y-36.62
X40.55Y-62.98
X40.56Y-14.42
X40.62Y-59.09
X40.63Y-10.53
X40.65Y-83.66
X40.66Y-35.1
X41.15Y-55.34
X41.16Y-6.78
X41.23Y-82.06
X41.24Y-33.5
X41.38Y-87.56
X41.39Y-39.
X42.01Y-56.93
X42.02Y-8.37
X42.45Y-82.94
X42.46Y-34.38
X42.76Y-64.36
X42.77Y-15.8
X43.14Y-87.57
X43.15Y-39.01
X43.48Y-86.07
X43.49Y-37.51
X43.73Y-61.99
X43.74Y-13.43
X44.25Y-63.44
X44.26Y-14.88
X44.52Y-80.3
X44.53Y-31.74
X45.07Y-82.8
X45.08Y-34.24
X45.73Y-81.19
X45.74Y-32.63
X54.16Y-75.92
X54.17Y-27.36
X54.59Y-74.25
X54.6Y-25.69
X55.56Y-76.61
X55.57Y-28.05
X56.95Y-69.41
X56.96Y-20.85
X57.12Y-73.65
X57.13Y-25.09
X57.61Y-67.98
X57.62Y-19.42
X58.38Y-78.84
X58.39Y-30.28
X58.5Y-74.33
X58.51Y-25.77
X58.83Y-76.28
X58.84Y-27.72
X59.28Y-72.3
X59.29Y-23.74
X59.29Y-68.39
X59.3Y-19.83
X59.83Y-79.89
X59.84Y-31.33
X59.93Y-70.91
X59.94Y-22.35
X59.97Y-75.26
X59.98Y-26.7
X60.94Y-78.86
X60.95Y-30.3
X60.99Y-72.58
X61.Y-24.02
X61.38Y-74.26
X61.39Y-25.7
X61.8Y-61.56
X61.81Y-13.
X61.91Y-75.67
X61.92Y-27.11
X62.23Y-59.87
X62.24Y-11.31
X62.52Y-72.64
X62.53Y-24.08
X62.8Y-69.3
X62.81Y-20.74
X63.19Y-62.22
X63.2Y-13.66
X63.24Y-56.36
X63.25Y-7.8
X63.35Y-54.84
X63.36Y-6.28
X64.12Y-77.04
X64.13Y-28.48
X64.33Y-69.39
X64.34Y-20.83
X64.63Y-71.1
X64.64Y-22.54
X64.79Y-59.27
X64.8Y-10.71
X65.07Y-54.6
X65.08Y-6.04
X65.11Y-74.74
X65.12Y-26.18
X65.6Y-76.16
X65.61Y-27.6
X66.03Y-64.5
X66.04Y-15.94
X66.08Y-85.19
X66.09Y-36.63
X66.14Y-59.97
X66.15Y-11.41
X66.45Y-86.67
X66.46Y-38.11
X66.46Y-58.27
X66.47Y-9.71
X66.48Y-61.91
X66.49Y-13.35
X66.55Y-56.73
X66.55Y-90.31
X66.56Y-8.17
X66.56Y-41.75
X66.64Y-92.04
X66.65Y-43.48
X67.45Y-65.52
X67.46Y-16.96
X67.61Y-60.87
X67.62Y-12.31
X67.62Y-84.46
X67.63Y-35.9
X68.16Y-92.25
X68.17Y-43.69
X68.6Y-64.5
X68.61Y-15.94
X68.65Y-58.19
X68.66Y-9.63
X68.79Y-88.98
X68.8Y-40.42
X69.05Y-59.91
X69.05Y-69.2
X69.06Y-11.35
X69.06Y-20.64
X69.43Y-70.7
X69.44Y-22.14
X69.51Y-74.3
X69.52Y-25.74
X69.56Y-61.33
X69.57Y-12.77
X69.6Y-76.06
X69.61Y-27.5
X69.72Y-86.06
X69.73Y-37.5
X70.04Y-87.5
X70.05Y-38.94
X70.17Y-58.31
X70.18Y-9.75
X70.28Y-89.21
X70.29Y-40.65
X70.44Y-54.96
X70.45Y-6.4
X70.65Y-68.44
X70.66Y-19.88
X70.98Y-82.97
X70.99Y-34.41
X71.13Y-76.29
X71.14Y-27.73
X71.21Y-90.97
X71.22Y-42.41
X71.55Y-93.56
X71.56Y-45.
X71.59Y-86.67
X71.6Y-38.11
X71.75Y-62.71
X71.76Y-14.15
X71.76Y-73.
X71.77Y-24.44
X71.98Y-55.01
X71.99Y-6.45
X71.99Y-89.63
X72.Y-41.07
X72.24Y-82.04
X72.25Y-33.48
X72.27Y-56.74
X72.28Y-8.18
X72.7Y-70.05
X72.71Y-21.49
X72.73Y-60.36
X72.74Y-11.8
X72.83Y-85.76
X72.84Y-37.2
X73.02Y-88.26
X73.03Y-39.7
X73.05Y-71.55
X73.06Y-22.99
X73.22Y-94.13
X73.23Y-45.57
X73.26Y-61.8
X73.27Y-13.24
X73.27Y-73.23
X73.28Y-24.67
X73.54Y-83.24
X73.55Y-34.68
X73.92Y-89.5
X73.93Y-40.94
X73.98Y-67.
X73.98Y-92.77
X73.99Y-18.44
X73.99Y-44.21
X74.2Y-75.
X74.21Y-26.44
X74.52Y-77.58
X74.53Y-29.02
X74.55Y-70.7
X74.56Y-22.14
X74.94Y-73.69
X74.95Y-25.13
X75.2Y-66.07
X75.21Y-17.51
X75.81Y-69.74
X75.82Y-21.18
X76.02Y-72.3
X76.03Y-23.74
X76.17Y-78.13
X76.18Y-29.57
X76.46Y-90.15
X76.47Y-41.59
X76.48Y-67.27
X76.49Y-18.71
X76.69Y-87.61
X76.7Y-39.05
X76.91Y-73.52
X76.92Y-24.96
X76.97Y-76.82
X76.98Y-28.26
X77.63Y-88.82
X77.64Y-40.26
X77.99Y-63.22
X78.Y-14.66
X78.41Y-61.53
X78.42Y-12.97
X78.8Y-81.13
X78.81Y-32.57
X79.37Y-63.88
X79.38Y-15.32
X79.41Y-58.04
X79.41Y-74.15
X79.42Y-9.48
X79.42Y-25.59
X79.5Y-56.49
X79.51Y-7.93
X79.62Y-82.47
X79.63Y-33.91
X79.63Y-71.63
X79.64Y-23.07
X80.1Y-79.99
X80.11Y-31.43
X80.59Y-72.85
X80.6Y-24.29
X80.8Y-85.87
X80.81Y-37.31
X80.95Y-60.94
X80.96Y-12.38
X81.25Y-56.26
X81.26Y-7.7
X81.39Y-87.52
X81.4Y-38.96
X82.22Y-66.12
X82.23Y-17.56
X82.33Y-61.61
X82.34Y-13.05
X82.56Y-83.96
X82.57Y-35.4
X82.58Y-80.84
X82.59Y-32.28
X82.64Y-59.91
X82.65Y-11.35
X82.65Y-63.54
X82.66Y-14.98
X82.72Y-58.39
X82.73Y-9.83
X82.82Y-77.58
X82.83Y-29.02
X82.93Y-87.25
X82.94Y-38.69
X83.33Y-82.16
X83.34Y-33.6
X83.63Y-67.16
X83.64Y-18.6
X83.74Y-76.33
X83.75Y-27.77
X83.78Y-62.49
X83.79Y-13.93
X84.05Y-83.69
X84.06Y-35.13
X84.32Y-59.53
X84.33Y-10.97
X84.5Y-80.93
X84.51Y-32.37
X84.78Y-66.12
X84.79Y-17.56
X84.82Y-55.85
X84.83Y-7.29
X85.19Y-61.51
X85.2Y-12.95
X85.34Y-77.06
X85.35Y-28.5
X85.41Y-79.65
X85.42Y-31.09
X85.46Y-85.15
X85.47Y-36.59
X85.71Y-62.95
X85.72Y-14.39
X85.78Y-59.06
X85.79Y-10.5
X85.81Y-83.63
X85.82Y-35.07
X86.31Y-55.31
X86.32Y-6.75
X86.39Y-82.03
X86.4Y-33.47
X86.54Y-87.53
X86.55Y-38.97
X87.17Y-56.9
X87.18Y-8.34
X87.61Y-82.91
X87.62Y-34.35
X87.92Y-64.33
X87.93Y-15.77
X88.3Y-87.54
X88.31Y-38.98
X88.64Y-86.04
X88.65Y-37.48
X88.89Y-61.96
X88.9Y-13.4
X89.41Y-63.41
X89.42Y-14.85
X89.68Y-80.27
X89.69Y-31.71
X90.23Y-82.77
X90.24Y-34.21
X90.89Y-81.16
X90.9Y-32.6
T2
X5.Y-5.
X5.Y-95.
X95.Y-5.
X95.Y-95.
T0
M30
